<svg width="278" height="67" viewBox="0 0 278 67" fill="none" xmlns="http://www.w3.org/2000/svg">
<path d="M242.619 25.2171C238.297 25.3072 233.976 25.5773 229.745 25.8473V1.89966H278V25.8473C273.589 25.5773 269.267 25.3072 264.946 25.2171C264.766 38.4514 265.036 51.6856 265.846 64.8298H241.808C242.529 51.5956 242.799 38.3614 242.619 25.2171Z" fill="black"/>
<path d="M200.927 66.7205C186.792 66.9005 177.429 58.0777 176.259 49.9751C174.818 40.342 175.539 2.43984 176.259 1.89966H198.496C197.866 11.1726 197.146 47.0942 200.927 48.4446C201.287 48.5346 201.557 48.5346 201.827 48.4446C205.608 47.0942 204.888 11.1726 204.258 1.89966H226.495C227.215 2.43984 227.935 40.342 226.495 49.9751C225.325 58.0777 216.052 66.9005 201.917 66.7205H200.927Z" fill="black"/>
<path d="M165.062 9.37216C169.744 15.6742 172.445 24.2269 172.445 33.1398C172.445 42.0526 169.744 50.6054 165.062 56.9074C160.381 63.2094 153.359 66.7206 144.176 66.7206C135.893 66.8106 127.7 63.2094 123.019 56.9074C118.337 50.6054 115.727 42.0526 115.727 33.1398C115.727 24.2269 118.337 15.6742 123.019 9.37216C125.54 5.95107 131.752 0.189217 143.996 0.00916112C155.609 -0.260927 162.181 5.50092 165.062 9.37216Z" fill="black"/>
<path d="M97.3606 30.3488C105.103 30.2588 114.286 35.0303 114.016 47.0041V47.6343C114.106 57.1774 107.354 61.7689 102.132 63.8395C99.6114 64.9199 95.1099 64.8298 94.5697 64.8298C94.2996 64.9199 93.6694 64.8298 93.5794 64.8298C78.4546 64.2897 75.1235 44.9335 73.8631 41.8725C75.3936 48.6246 77.0141 55.5569 81.2455 64.8298H60.6288C60.6288 64.8298 60.8989 58.7979 60.8989 57.8976C61.7092 39.1716 61.6192 20.5356 60.6288 1.89966H84.3064C88.9879 1.89966 97.1806 1.89966 100.872 3.34012C105.283 4.96064 110.145 8.29171 110.145 16.3043V16.9345C110.235 27.1978 102.042 29.4485 97.3606 30.3488ZM84.5765 19.8154V27.918C84.6666 28.008 86.8273 28.0981 88.3577 27.918C89.6181 27.6479 91.0586 26.2075 91.0586 23.9567V23.7767C91.0586 21.526 89.6181 20.0855 88.3577 19.8154C86.8273 19.6353 84.6666 19.7254 84.5765 19.8154ZM92.7692 40.342V40.1619C92.7692 37.281 90.9686 35.3904 89.3481 35.2103C87.3674 34.8502 84.7566 35.0303 84.5765 35.2103V45.2936C84.7566 45.4736 87.3674 45.6537 89.3481 45.2936C90.9686 45.1135 92.7692 43.2229 92.7692 40.342Z" fill="black"/>
<path d="M45.2845 1.89966C48.6156 22.9664 53.027 43.9431 58.6088 64.9199H34.6611C34.301 60.7785 33.8509 56.8173 33.4007 53.0361C30.6998 53.0361 27.909 53.0361 25.2081 53.0361C24.7579 56.8173 24.3078 60.7785 23.9477 64.8298H0C5.49176 43.9431 9.9932 22.9664 13.3243 1.89966H45.2845Z" fill="black"/>
<path d="M29.695 43.0099C28.6541 42.9094 27.9243 42.1922 27.4177 41.0127C25.8224 39.4678 23.9471 36.5093 22.4442 32.9528C20.0885 27.3779 19.5385 22.4464 21.2147 21.939C22.4796 21.5571 24.6504 23.8025 26.6519 27.3224C27.1549 23.7434 28.2221 21.3539 29.4653 21.4812C30.5944 21.5978 31.5912 23.7617 32.1577 26.9179C33.9587 23.0015 36.053 20.5552 37.3173 21.149C38.9019 21.8942 38.5815 27.134 36.6015 32.8524C35.261 36.7238 33.5028 39.8222 32.0154 41.1892C31.5868 42.3328 30.8759 42.9826 29.695 43.0099Z" fill="#F7F4EB"/>
<path d="M144.397 21.7377C145.564 21.6395 146.778 24.3177 147.402 28.0649C149.826 25.7903 152.029 24.6064 152.848 25.2988C153.742 26.0544 152.708 28.8054 150.501 31.8958C153.822 32.0016 156.216 32.7219 156.306 33.7907C156.403 34.9574 153.725 36.1705 149.978 36.7951C152.253 39.2193 153.438 41.4214 152.745 42.241C151.99 43.1353 149.238 42.1004 146.146 39.8928C146.041 43.2148 145.321 45.6084 144.252 45.6984C143.086 45.7961 141.872 43.1198 141.247 39.3741C138.824 41.6472 136.624 42.8307 135.804 42.1392C134.91 41.3835 135.943 38.63 138.151 35.5383C134.829 35.4327 132.435 34.7143 132.345 33.6453C132.247 32.4787 134.923 31.2638 138.669 30.6389C136.396 28.2162 135.213 26.0155 135.905 25.196C136.66 24.3017 139.412 25.3353 142.503 27.5423C142.609 24.2212 143.328 21.8277 144.397 21.7377Z" fill="#F7F4EB"/>
</svg>
