<svg width="62" height="61" viewBox="0 0 62 61" fill="none" xmlns="http://www.w3.org/2000/svg">
<path d="M32.5848 6.34703C33.5415 5.21007 35.3602 5.47664 35.9504 6.84036L38.6609 13.1025C39.0283 13.9513 39.9297 14.4375 40.8408 14.2782L47.5624 13.1029C49.0262 12.8469 50.248 14.2201 49.8236 15.6442L47.8747 22.1835C47.6105 23.0699 47.9886 24.0218 48.7889 24.4854L54.6934 27.9056C55.9792 28.6505 56.0325 30.4878 54.792 31.3059L49.0956 35.0625C48.3235 35.5717 48.0013 36.5439 48.3164 37.4135L50.641 43.8289C51.1472 45.226 50.007 46.6677 48.5309 46.497L41.7525 45.7132C40.8337 45.607 39.962 46.1446 39.6444 47.0133L37.3014 53.422C36.7912 54.8176 34.991 55.1891 33.97 54.1095L29.2812 49.1521C28.6457 48.4801 27.6323 48.3316 26.8306 48.7929L20.9164 52.1962C19.6284 52.9373 18.0106 52.0648 17.9224 50.5815L17.5172 43.77C17.4623 42.8467 16.7814 42.0815 15.8708 41.9196L9.15264 40.7251C7.68961 40.465 7.01114 38.7567 7.89703 37.5637L11.965 32.0853C12.5164 31.3427 12.4867 30.3189 11.8932 29.6096L7.51457 24.3761C6.56103 23.2365 7.13935 21.4917 8.58485 21.1472L15.2225 19.5654C16.1222 19.351 16.7575 18.5476 16.7589 17.6227L16.7686 10.7992C16.7708 9.31321 18.3353 8.34841 19.664 9.01367L25.7656 12.0685C26.5926 12.4826 27.5957 12.2756 28.1912 11.5679L32.5848 6.34703Z" fill="#F7F4EB"/>
<path d="M25.6166 20.9397C28.5699 20.9398 30.9642 23.3341 30.9642 26.2874C30.9642 28.0367 30.1241 29.5901 28.8256 30.5657C30.1239 31.5412 30.9641 33.0939 30.9642 34.843C30.9642 37.7964 28.5699 40.1906 25.6166 40.1907H21.3383C20.7477 40.1906 20.2689 39.7119 20.2689 39.1213V22.009C20.2691 21.4186 20.7478 20.9398 21.3383 20.9397H25.6166ZM37.0248 29.4954C39.978 29.4956 42.3715 31.8898 42.3715 34.843C42.3713 35.4335 41.8927 35.9124 41.3021 35.9124H34.0023C34.3106 36.7821 34.9844 37.4972 35.8793 37.8391C37.122 38.3138 38.5286 37.9722 39.4154 36.9807C39.8093 36.5405 40.4859 36.5029 40.9261 36.8967C41.3663 37.2906 41.404 37.9673 41.0101 38.4075C39.532 40.0597 37.1876 40.628 35.1166 39.8372C33.1101 39.0707 31.7632 37.1821 31.681 35.0491L31.6771 34.842C31.6775 31.8889 34.0716 29.4954 37.0248 29.4954ZM22.4076 38.052H25.6166C27.3886 38.0519 28.8246 36.615 28.8246 34.843C28.8244 33.0711 27.3885 31.6351 25.6166 31.635C25.6045 31.635 25.5924 31.6335 25.5804 31.6331H22.4076V38.052ZM37.0248 31.634C35.6279 31.634 34.439 32.5267 33.9984 33.7727H40.0502C39.6096 32.5269 38.4215 31.6342 37.0248 31.634ZM22.4076 29.4944H25.6283C27.3949 29.488 28.8246 28.0554 28.8246 26.2874C28.8246 24.5154 27.3886 23.0784 25.6166 23.0784H22.4076V29.4944ZM39.8763 26.6428C40.467 26.6428 40.9457 27.1215 40.9457 27.7122C40.9456 28.3027 40.4669 28.7815 39.8763 28.7815H34.1722C33.5817 28.7814 33.103 28.3027 33.1029 27.7122C33.1029 27.1216 33.5817 26.6429 34.1722 26.6428H39.8763Z" fill="#202020"/>
</svg>
