<svg width="193" height="193" viewBox="0 0 193 193" fill="none" xmlns="http://www.w3.org/2000/svg">
<path d="M94.6422 62.7398C97.9161 62.2315 101.878 69.5458 104.384 79.9971C110.774 73.099 116.755 69.3252 119.205 71.1168C121.878 73.0721 119.509 81.0426 113.894 90.2029C123.287 89.8442 130.183 91.404 130.648 94.4029C131.156 97.6765 123.843 101.637 113.393 104.144C120.291 110.534 124.066 116.514 122.274 118.964C120.318 121.638 112.346 119.267 103.184 113.65C103.543 123.046 101.984 129.943 98.9851 130.409C95.7118 130.917 91.75 123.606 89.2433 113.157C82.855 120.053 76.8775 123.826 74.4278 122.035C71.7533 120.08 74.1229 112.104 79.7411 102.941C70.3435 103.301 63.4448 101.743 62.979 98.7428C62.4708 95.4692 69.7836 91.5074 80.2334 89.0008C73.3376 82.6123 69.5641 76.6341 71.3553 74.1843C73.3105 71.5104 81.2819 73.8796 90.4423 79.4952C90.0835 70.1011 91.6434 63.2057 94.6422 62.7398Z" fill="#1D1D1D"/>
<path d="M97.1575 81.0735C97.2897 81.0723 97.4315 81.1109 97.5452 81.2004C97.6338 81.2703 97.7001 81.3673 97.7297 81.4856L97.7463 81.6116V81.6135L98.2073 107.552L101.256 102.607C101.467 102.244 101.854 102.193 102.132 102.34C102.268 102.412 102.384 102.535 102.439 102.693C102.495 102.854 102.484 103.039 102.393 103.22L102.392 103.219L98.6809 111.524L98.679 111.528C98.5593 111.779 98.4413 112.029 98.2581 112.203C98.0604 112.392 97.806 112.479 97.4524 112.472V112.473L97.4514 112.472L97.4485 112.473V112.472C96.8091 112.47 96.4702 112.026 96.2297 111.563L96.2278 111.558L92.1409 103.203L92.1418 103.202C91.9689 102.855 92.1478 102.533 92.3889 102.388C92.5105 102.315 92.6614 102.276 92.8127 102.3C92.9671 102.325 93.1065 102.415 93.2014 102.569H93.2024L96.4973 107.551L96.593 81.6165C96.5897 81.4447 96.6608 81.3033 96.7747 81.2083C96.8849 81.1163 97.0255 81.0747 97.1575 81.0735Z" fill="#F7F4EB" stroke="#F7F4EB" stroke-width="0.4"/>
<path d="M39.252 80.5298C39.9675 81.6335 40.509 82.9645 40.1977 84.35C39.8252 86.0086 38.3986 86.6106 36.7399 86.238C33.6957 85.5542 30.8952 82.6909 31.5001 79.998C31.7631 78.8271 32.5302 78.241 33.5839 78.4777C35.4573 78.8985 36.4406 81.4562 35.9866 84.5725C36.2554 84.6533 36.5047 84.7298 36.7584 84.7868C38.1634 85.1024 39.0862 84.7357 39.3711 83.4673C39.6122 82.3941 39.2543 81.4323 38.8525 80.6656L39.252 80.5298ZM32.0198 80.4222C31.6866 81.9052 33.555 83.5343 35.4426 84.3478C35.7838 82.1901 35.2182 80.0542 33.4424 79.6553C32.857 79.5238 32.2039 79.6026 32.0198 80.4222ZM34.5642 75.8245L34.1466 75.9643C33.7736 75.0932 33.3816 73.9363 33.5891 73.3947C33.7537 72.9652 34.1527 72.8182 34.8449 72.9121L37.6496 73.1944C36.3438 71.516 35.1166 69.6322 35.5675 68.4556C35.775 67.914 36.1843 67.9637 36.8252 68.3593C36.6134 70.1415 37.1512 71.8682 38.2485 73.2526L41.8158 73.6129C42.2251 73.6626 42.4432 73.5963 42.522 73.3909C42.6078 73.1668 42.5857 72.6656 42.3378 71.971L42.7742 71.8383C43.1011 72.6061 43.5634 73.7471 43.3201 74.3821C43.1126 74.9237 42.6202 75.0349 41.7944 74.954L39.0529 74.6746C40.4494 76.4519 41.7743 78.4161 41.3163 79.6113C41.1088 80.1529 40.6808 80.096 40.0399 79.7005C40.2429 77.8292 39.7544 76.4212 38.4354 74.6093L35.1209 74.2601C34.6556 74.1889 34.4704 74.225 34.3845 74.4491C34.2843 74.7106 34.3668 75.2777 34.5642 75.8245ZM37.9672 66.6409C37.765 65.5685 37.6889 64.3616 38.0759 63.7075C38.4832 63.019 39.138 63.5226 39.8898 64.1765C40.2865 64.5273 40.6901 64.9055 41.111 65.2939C40.0945 63.4377 39.4404 61.4009 40.1838 60.1443C40.8762 58.9738 42.166 58.9932 43.5775 59.8282C46.2973 61.4372 48.0775 65.302 46.4482 68.0562C46.214 68.4521 45.9179 68.8347 45.546 69.1491L46.4738 69.9769C47.2084 70.6206 47.623 71.0982 48.0214 71.1712C48.4643 71.2473 48.8425 70.8437 49.5803 69.7929L49.9081 70.103C49.0113 71.5012 48.8515 71.732 48.3831 72.5238C47.9146 73.3156 47.718 73.6873 47.3012 74.5097L46.9734 74.1996C47.261 73.5564 47.4201 73.2089 47.3216 72.8254C47.2474 72.4794 46.9815 72.1827 46.4331 71.6956L39.1763 65.2648C38.9416 65.033 38.7178 64.9006 38.5651 65.1588C38.4022 65.4342 38.3988 65.9899 38.4642 66.5863L37.9672 66.6409ZM42.3557 66.3323L44.9288 68.6213C45.4212 68.3782 45.8096 67.9573 46.0234 67.5958C47.1639 65.6679 45.3919 62.5747 43.2747 61.3222C42.5517 60.8945 41.2723 60.3468 40.7835 61.173C40.1115 62.3091 41.6808 65.3521 42.3557 66.3323ZM51.1843 58.4478C51.2866 59.6462 51.1911 60.7405 50.7715 61.2756C50.2903 61.8894 49.6798 61.4362 49.0163 60.6618L41.6332 52.1534C41.036 51.4564 40.8947 51.7015 40.0453 52.6875L39.6957 52.3879L41.1456 49.8904L41.4264 49.8564L49.878 59.66C50.1592 59.9821 50.34 59.946 50.451 59.8044C50.6361 59.5683 50.7154 59.0459 50.7159 58.4617L51.1843 58.4478ZM55.5084 56.0706C54.1961 57.3603 52.457 57.3028 50.929 55.7479C48.7421 53.5226 48.2356 49.9825 50.2469 48.0059C51.5735 46.7022 53.2983 46.7738 54.8263 48.3287C56.9711 50.5112 57.534 54.08 55.5084 56.0706ZM55.3161 55.4184C56.7996 53.9605 55.4534 51.0212 53.7992 49.338C52.5376 48.0542 51.2808 47.8311 50.4535 48.6441C48.9557 50.1161 50.3302 53.0556 51.9703 54.7246C53.232 56.0084 54.4745 56.2455 55.3161 55.4184ZM55.7433 44.9212C55.9426 43.9362 56.3288 42.766 56.9114 42.343C57.4617 41.9434 57.8862 42.4261 58.3529 43.5455L59.6666 46.5462L59.718 46.583C59.1733 43.7902 59.1005 41.0007 60.1686 40.2252C60.5894 39.9197 60.9949 40.342 61.337 40.9834C60.1137 42.7366 59.7949 44.2039 60.2466 47.5833L61.4605 50.3104L60.7041 51.1068L60.3733 51.0257L57.3276 44.1416C57.1456 43.7548 56.9941 43.7164 56.8161 43.8457C56.5572 44.0337 56.3612 44.5467 56.2049 45.0804L55.7433 44.9212ZM70.8352 42.8961C70.471 44.16 69.8211 45.4416 68.571 46.115C67.0743 46.9213 65.6844 46.2388 64.8781 44.7422C63.3984 41.9954 63.7241 38.0034 66.154 36.6944C67.2104 36.1253 68.156 36.3202 68.6682 37.271C69.5788 38.9613 68.2924 41.3808 65.6418 43.0813C65.757 43.3373 65.8627 43.5757 65.986 43.8046C66.6689 45.0724 67.5508 45.5287 68.6953 44.9121C69.6638 44.3904 70.1553 43.4896 70.4708 42.6835L70.8352 42.8961ZM66.1744 37.3649C64.8362 38.0858 64.8313 40.5647 65.4548 42.5233C67.3076 41.3661 68.5494 39.5386 67.6862 37.9363C67.4017 37.4081 66.9139 36.9666 66.1744 37.3649ZM86.0051 39.9034L86.3972 33.1595C86.4397 32.4036 86.4054 31.8016 85.9115 31.8796C85.1213 32.0045 83.564 33.8097 82.2231 36.8564L82.024 40.5933L80.9094 40.9719L80.6515 40.7494L81.0436 33.2361C81.0539 32.789 80.9593 32.7027 80.742 32.7371C80.4259 32.787 80.0152 33.1354 79.6337 33.5399L79.2978 33.2083C79.9226 32.4211 80.7979 31.5538 81.5289 31.4383C82.2005 31.3322 82.4554 31.9196 82.3859 33.1455L82.2531 35.6368C83.3227 33.1797 85.0879 30.8962 86.53 30.6683C87.5177 30.5122 87.8651 31.4292 87.7915 32.7569L87.6514 34.9456C88.7314 32.4262 90.5402 30.0345 92.0218 29.8004C93.0096 29.6443 93.3538 30.5415 93.2833 31.8891L92.9929 37.483C92.966 37.9529 93.2155 37.9945 93.3735 37.9695C93.6699 37.9227 94.0441 37.6003 94.4225 37.176L94.7553 37.4879C94.0338 38.4321 93.2552 39.1424 92.6033 39.2454C91.8921 39.3578 91.552 38.7433 91.6111 37.5798L91.8891 32.2916C91.9316 31.5357 91.8972 30.9337 91.4231 31.0086C90.6131 31.1366 88.9695 33.0365 87.5746 36.2537L87.3775 39.7472L86.263 40.1259L86.0051 39.9034ZM97.6714 40.0519L98.5891 38.8055L98.4388 31.4226C98.4395 31.082 98.4052 30.6591 98.0659 30.6384C97.7864 30.6214 97.3338 30.8141 96.7892 31.2017L96.5316 30.8253C97.253 30.168 98.194 29.5242 99.0125 29.5741C99.811 29.6229 99.8584 30.4874 99.8391 31.7886L99.7471 37.2331L101.384 35.0288C102.89 33.0168 103.393 31.665 103.447 30.7866C103.464 30.5072 103.437 30.2851 103.388 30.1018C103.699 29.9404 104.023 29.8801 104.243 29.8935C104.682 29.9203 104.926 30.1957 104.896 30.6748C104.86 31.2737 104.423 32.1888 103.57 33.3589L98.4899 40.1019C96.9621 42.1526 96.125 43.0632 94.8075 42.9828C94.3883 42.9572 94.0713 42.8978 93.7205 42.7361L94.8058 40.0572L95.1851 40.0804L95.1357 42.2013C96.1 42.16 96.6454 41.4319 97.6714 40.0519ZM134.432 36.5612C134.901 36.7855 135.477 37.0169 136.252 37.3432L136.011 37.8484C134.77 37.4766 134.636 37.5237 133.344 38.7899L124.9 46.9894L124.395 46.7478L125.336 36.7121L117.971 43.676L117.466 43.4344L118.569 32.3672C118.795 29.9479 118.793 29.8585 117.643 29.0646L117.885 28.5594C118.589 28.9406 119.294 29.3219 120.286 29.7964C121.513 30.3832 121.945 30.5455 122.684 30.8546L122.442 31.3598C121.705 31.1402 121.066 30.9456 120.808 31.4869C120.652 31.8117 120.609 32.4118 120.499 33.2904L119.692 40.7743L126.959 33.8299L127.554 34.1147L126.531 44.1339L132.333 38.3067C132.755 37.8878 133.054 37.5873 133.166 37.3527C133.434 36.7934 132.864 36.4545 132.294 36.071L132.535 35.5657C133.276 35.9642 133.71 36.216 134.432 36.5612ZM135.117 54.509C132.2 51.8009 132.369 47.9454 134.981 45.1313C137.567 42.3466 141.739 41.4985 144.67 44.2202C147.733 47.0644 147.269 50.9451 144.778 53.6272C142.084 56.5292 138.077 57.2579 135.117 54.509ZM135.678 53.9929C137.642 55.8164 140.518 55.1296 142.994 52.4621C145.471 49.7947 146.161 46.6415 144.138 44.7636C142.174 42.94 139.337 43.5264 136.861 46.1938C134.384 48.8613 133.655 52.1149 135.678 53.9929ZM148.468 70.3952L147.999 70.7005C147.564 69.9578 147.286 69.4942 147.003 69.0582C146.73 68.6391 146.452 68.2476 146.124 67.8167L149.339 61.1688C149.159 60.9282 148.978 60.6876 148.804 60.4193L148.248 59.5642L145.582 61.298C144.677 61.8868 144.185 62.2306 144.004 62.5392C143.822 62.9199 143.989 63.288 144.369 64.0911L143.899 64.3964C143.241 63.2739 143.127 63.0618 142.527 62.1397C141.971 61.2846 141.791 61.044 141.042 60.0037L141.512 59.6984C142.07 60.3371 142.356 60.6288 142.75 60.6111C143.144 60.5934 143.652 60.3107 144.574 59.711L150.761 55.6875C151.699 55.0769 152.158 54.7548 152.323 54.385C152.482 54.0429 152.337 53.6363 152.018 52.9614L152.487 52.6561L155.311 56.9986C157.23 59.9494 157.493 62.188 155.548 63.4528C154.023 64.4451 152.263 64.0867 150.599 62.5921L148.657 66.9802C147.871 68.7797 147.997 69.4135 148.468 70.3952ZM153.781 55.966L148.969 59.0954C149.137 59.4634 149.332 59.8373 149.572 60.2062C151.131 62.6037 152.72 62.8826 154.162 61.9448C155.721 60.9308 155.885 59.2019 154.577 57.1899L153.781 55.966ZM159.807 71.3651L155.933 72.7081L161.872 75.8565C162.521 76.2029 162.802 76.4019 163.104 76.2971C163.444 76.1792 163.484 75.7423 163.323 75.0358L163.852 74.8524C164.071 75.6657 164.288 76.3525 164.537 77.0706C164.773 77.7509 165.021 78.4057 165.477 79.5387L164.948 79.7222C164.371 78.5463 163.884 78.0588 162.541 77.2969L158.491 75.0177L154.388 80.5253C153.008 82.5279 153.013 82.9073 153.307 84.2447L152.778 84.4281C152.462 83.3946 152.33 82.9535 152.173 82.4999C152.016 82.0464 151.84 81.5994 151.632 81.1212L156.81 74.0765L154.969 73.0422L152.022 74.0642C151.247 74.3328 150.8 74.5089 150.581 74.7329C150.313 75.0587 150.387 75.4563 150.569 76.3459L150.04 76.5294C149.671 75.2814 149.585 74.9725 149.237 73.971C148.903 73.0073 148.78 72.7115 148.297 71.5028L148.826 71.3194C149.221 72.0927 149.422 72.4887 149.828 72.5598C150.126 72.6258 150.586 72.4875 151.398 72.2058L159.146 69.5198C159.959 69.2381 160.406 69.062 160.599 68.8256C160.873 68.5187 160.786 68.0834 160.618 67.2315L161.147 67.0481C161.516 68.296 161.602 68.6049 161.936 69.5686C162.283 70.5702 162.407 70.866 162.889 72.0746L162.36 72.258C161.952 71.447 161.758 71.0698 161.352 70.9987C161.042 70.9582 160.582 71.0965 159.807 71.3651ZM153.342 112.191C152.627 111.087 152.087 109.755 152.399 108.37C152.773 106.712 154.2 106.111 155.858 106.485C158.902 107.171 161.7 110.036 161.093 112.729C160.829 113.899 160.062 114.485 159.008 114.247C157.135 113.825 156.154 111.267 156.61 108.151C156.341 108.07 156.092 107.993 155.839 107.936C154.434 107.619 153.511 107.985 153.225 109.253C152.983 110.326 153.34 111.288 153.741 112.055L153.342 112.191ZM160.574 112.304C160.908 110.821 159.041 109.191 157.154 108.376C156.811 110.533 157.375 112.67 159.151 113.07C159.736 113.202 160.389 113.124 160.574 112.304ZM158.024 116.903L158.442 116.763C158.814 117.635 159.204 118.792 158.996 119.334C158.831 119.763 158.432 119.91 157.739 119.815L154.935 119.529C156.239 121.209 157.464 123.094 157.011 124.27C156.803 124.812 156.394 124.761 155.753 124.365C155.967 122.583 155.432 120.856 154.336 119.47L150.77 119.105C150.36 119.055 150.142 119.121 150.063 119.326C149.977 119.55 149.998 120.051 150.245 120.746L149.809 120.879C149.483 120.11 149.022 118.969 149.266 118.334C149.474 117.793 149.967 117.682 150.793 117.764L153.534 118.047C152.139 116.268 150.817 114.302 151.277 113.107C151.485 112.566 151.913 112.623 152.553 113.02C152.348 114.891 152.834 116.299 154.151 118.113L157.465 118.466C157.93 118.538 158.116 118.502 158.202 118.278C158.302 118.017 158.221 117.45 158.024 116.903ZM154.606 126.086C154.806 127.159 154.88 128.366 154.492 129.019C154.083 129.707 153.429 129.202 152.679 128.547C152.283 128.195 151.88 127.816 151.46 127.427C152.473 129.285 153.123 131.323 152.377 132.578C151.682 133.748 150.393 133.726 148.983 132.888C146.266 131.274 144.493 127.406 146.128 124.654C146.363 124.259 146.66 123.877 147.032 123.563L146.106 122.734C145.373 122.089 144.959 121.61 144.561 121.537C144.118 121.46 143.739 121.862 142.999 122.912L142.672 122.601C143.571 121.205 143.732 120.974 144.202 120.183C144.672 119.392 144.869 119.021 145.287 118.199L145.614 118.51C145.326 119.153 145.166 119.5 145.264 119.884C145.337 120.23 145.602 120.527 146.15 121.015L153.394 127.46C153.629 127.692 153.852 127.825 154.005 127.567C154.169 127.292 154.173 126.736 154.109 126.14L154.606 126.086ZM150.217 126.386L147.648 124.092C147.156 124.335 146.766 124.755 146.552 125.116C145.408 127.041 147.174 130.138 149.288 131.395C150.011 131.824 151.289 132.374 151.779 131.549C152.454 130.414 150.89 127.368 150.217 126.386ZM141.373 134.254C141.273 133.055 141.371 131.961 141.791 131.427C142.274 130.814 142.883 131.269 143.545 132.044L150.912 140.567C151.508 141.265 151.65 141.02 152.501 140.036L152.85 140.336L151.395 142.831L151.114 142.864L142.682 133.044C142.401 132.722 142.22 132.757 142.109 132.899C141.923 133.135 141.843 133.657 141.842 134.241L141.373 134.254ZM137.046 136.624C138.36 135.336 140.099 135.396 141.625 136.954C143.808 139.182 144.31 142.723 142.295 144.697C140.967 145.998 139.242 145.924 137.716 144.367C135.575 142.181 135.017 138.612 137.046 136.624ZM137.237 137.277C135.751 138.732 137.093 141.674 138.745 143.359C140.005 144.645 141.261 144.87 142.09 144.058C143.59 142.588 142.22 139.647 140.582 137.975C139.322 136.69 138.08 136.451 137.237 137.277ZM136.791 147.775C136.59 148.76 136.202 149.929 135.618 150.351C135.067 150.749 134.644 150.266 134.179 149.146L132.871 146.142L132.82 146.106C133.359 148.899 133.427 151.689 132.357 152.462C131.936 152.767 131.531 152.344 131.19 151.702C132.417 149.951 132.738 148.484 132.293 145.104L131.084 142.375L131.842 141.58L132.173 141.662L135.206 148.551C135.387 148.939 135.538 148.977 135.716 148.848C135.976 148.661 136.173 148.148 136.33 147.615L136.791 147.775ZM121.696 149.772C122.063 148.509 122.715 147.228 123.966 146.557C125.464 145.753 126.853 146.438 127.657 147.936C129.132 150.686 128.799 154.677 126.367 155.982C125.31 156.549 124.364 156.353 123.854 155.401C122.946 153.709 124.237 151.292 126.89 149.596C126.775 149.34 126.67 149.101 126.547 148.872C125.866 147.603 124.985 147.145 123.84 147.76C122.87 148.28 122.377 149.18 122.061 149.985L121.696 149.772ZM126.348 155.311C127.687 154.593 127.696 152.114 127.076 150.154C125.221 151.308 123.977 153.134 124.837 154.737C125.121 155.266 125.608 155.708 126.348 155.311ZM106.522 152.74L106.119 159.483C106.075 160.239 106.108 160.841 106.602 160.764C107.393 160.641 108.953 158.838 110.299 155.793L110.504 152.057L111.619 151.68L111.877 151.903L111.473 159.416C111.461 159.863 111.556 159.949 111.773 159.915C112.089 159.866 112.501 159.518 112.883 159.114L113.218 159.446C112.592 160.233 111.715 161.098 110.984 161.213C110.312 161.318 110.059 160.73 110.13 159.504L110.267 157.013C109.193 159.468 107.424 161.749 105.982 161.975C104.994 162.129 104.648 161.211 104.724 159.884L104.868 157.695C103.783 160.213 101.971 162.602 100.489 162.833C99.5007 162.988 99.1579 162.09 99.2306 160.743L99.5302 155.149C99.5579 154.679 99.3085 154.637 99.1504 154.662C98.854 154.708 98.4792 155.03 98.1001 155.454L97.7678 155.141C98.4908 154.198 99.2707 153.489 99.9228 153.387C100.634 153.276 100.973 153.891 100.912 155.055L100.626 160.342C100.582 161.098 100.615 161.7 101.089 161.626C101.9 161.499 103.546 159.602 104.946 156.387L105.149 152.894L106.264 152.517L106.522 152.74ZM94.8557 152.573L93.936 153.817L94.0741 161.201C94.0728 161.541 94.1064 161.964 94.4457 161.985C94.7252 162.003 95.1781 161.811 95.7234 161.424L95.9803 161.801C95.2578 162.457 94.3157 163.099 93.4974 163.048C92.6989 162.998 92.6529 162.133 92.6744 160.832L92.7754 155.388L91.1344 157.59C89.6256 159.599 89.1201 160.95 89.065 161.828C89.0475 162.108 89.0736 162.33 89.1223 162.513C88.8116 162.674 88.4872 162.734 88.2676 162.72C87.8285 162.693 87.5853 162.417 87.6153 161.938C87.6529 161.339 88.091 160.425 88.9458 159.256L94.0373 152.521C95.5685 150.473 96.407 149.564 97.7244 149.646C98.1436 149.673 98.4605 149.733 98.811 149.895L97.7213 152.572L97.3421 152.548L97.3949 150.427C96.4305 150.467 95.884 151.194 94.8557 152.573ZM58.0919 156.012C57.623 155.787 57.0467 155.555 56.272 155.228L56.5142 154.723C57.7548 155.096 57.8882 155.049 59.1825 153.784L67.6356 145.595L68.1406 145.837L67.1871 155.871L74.5603 148.916L75.0652 149.158L73.9498 160.224C73.7212 162.643 73.7226 162.733 74.8718 163.528L74.6296 164.033C73.9256 163.651 73.2216 163.269 72.2297 162.793C71.0035 162.205 70.5714 162.042 69.8328 161.732L70.075 161.227C70.8122 161.447 71.4505 161.643 71.71 161.102C71.8657 160.777 71.9095 160.177 72.0203 159.299L72.8367 151.816L65.5616 158.752L64.9665 158.466L66.0007 148.448L60.1923 154.269C59.7698 154.687 59.4706 154.987 59.3581 155.222C59.09 155.781 59.6591 156.12 60.229 156.504L59.9868 157.009C59.2467 156.61 58.8132 156.358 58.0919 156.012ZM57.4296 138.059C60.3412 140.772 60.1656 144.627 57.5475 147.437C54.9567 150.217 50.7834 151.057 47.8573 148.33C44.7994 145.48 45.2713 141.6 47.7666 138.923C50.4665 136.026 54.4741 135.304 57.4296 138.059ZM56.8675 138.574C54.907 136.747 52.03 137.428 49.5483 140.091C47.0666 142.754 46.371 145.906 48.39 147.787C50.3506 149.615 53.1886 149.033 55.6703 146.371C58.1521 143.708 58.8866 140.456 56.8675 138.574ZM44.1077 122.145L44.5778 121.84C45.0116 122.584 45.2883 123.048 45.5709 123.485C45.8427 123.904 46.1203 124.297 46.4474 124.728L43.2184 131.37C43.3983 131.61 43.5781 131.851 43.752 132.12L44.3064 132.976L46.9757 131.248C47.8823 130.661 48.3751 130.318 48.5567 130.01C48.7393 129.63 48.5723 129.261 48.1948 128.457L48.6648 128.153C49.321 129.277 49.4347 129.489 50.0325 130.412C50.5869 131.269 50.7667 131.51 51.5127 132.551L51.0427 132.856C50.4854 132.216 50.2009 131.924 49.8068 131.941C49.4127 131.957 48.9041 132.239 47.9807 132.837L41.7858 136.848C40.8457 137.457 40.3865 137.778 40.2206 138.147C40.0607 138.489 40.2051 138.896 40.5233 139.571L40.0532 139.876L37.2379 135.528C35.3248 132.573 35.0664 130.334 37.0138 129.073C38.5416 128.084 40.3008 128.446 41.9616 129.944L43.9121 125.559C44.7018 123.762 44.5771 123.128 44.1077 122.145ZM38.7663 136.563L43.5845 133.444C43.4175 133.075 43.2228 132.701 42.9836 132.332C41.4292 129.931 39.8409 129.649 38.3971 130.584C36.8358 131.595 36.6684 133.323 37.9728 135.338L38.7663 136.563Z" fill="black"/>
<path d="M32.6479 121.641L36.897 120.159L30.6787 116.905C30.0353 116.579 29.7666 116.355 29.4644 116.46C29.1245 116.579 29.0731 116.978 29.2412 117.703L28.7691 117.868C28.6018 117.206 28.377 116.501 28.14 115.821C27.9226 115.198 27.6601 114.505 27.2083 113.392L27.6804 113.227C28.2661 114.421 28.6328 114.865 30.0732 115.655L34.5217 118.086L38.1992 112.779C39.8226 110.327 39.755 110.012 39.445 108.637L39.8983 108.479C40.1832 109.418 40.3347 109.852 40.4598 110.211C40.5718 110.532 40.7619 111.016 40.8993 111.35L35.8347 118.814L37.7468 119.863L40.9194 118.756C41.5803 118.526 41.9892 118.362 42.1697 118.151C42.4438 117.843 42.3678 117.383 42.1725 116.519L42.6446 116.354C42.9699 117.469 43.0564 117.778 43.3857 118.722C43.715 119.666 43.8393 119.962 44.2713 121.019L43.7992 121.183C43.4216 120.404 43.1946 119.996 42.7822 119.907C42.4906 119.86 42.0874 119.98 41.4076 120.217L33.1739 123.088C32.4941 123.326 32.1041 123.483 31.9047 123.701C31.6372 124.027 31.7132 124.487 31.9019 125.332L31.4298 125.497C31.1111 124.401 31.0246 124.092 30.6953 123.148C30.366 122.204 30.2417 121.908 29.8031 120.833L30.2752 120.668C30.6594 121.466 30.8864 121.874 31.2922 121.944C31.5715 122.016 31.987 121.871 32.6479 121.641Z" fill="#1D1D1D"/>
</svg>
