<svg width="772" height="197" viewBox="0 0 772 197" fill="none" xmlns="http://www.w3.org/2000/svg">
<path d="M694.041 61.1331C704.761 47.8531 719.161 29.7731 719.321 3.37311H759.641C762.681 32.4931 735.161 57.7731 735.161 57.7731C735.161 57.7731 755.641 88.8131 769.081 115.213H720.761C720.761 115.213 714.361 89.4531 705.401 79.5331C705.561 93.9331 705.721 100.973 706.521 115.213H663.961C665.881 77.7731 666.041 40.4931 663.961 3.37311H707.001C707.001 13.6131 710.521 27.2131 704.441 42.7331C702.361 48.0131 694.041 60.3331 694.041 61.1331Z" fill="#1D1D1D"/>
<path d="M659.916 80.9731V115.213H585.836C587.756 77.7731 587.756 40.4931 585.836 3.37311H628.396C626.956 29.7731 626.476 56.0131 627.116 82.2531C637.996 82.2531 648.876 81.7731 659.916 80.9731Z" fill="#1D1D1D"/>
<path d="M558.566 3.37311C564.486 40.8131 572.326 78.0931 582.246 115.373H539.686C539.046 108.013 538.246 100.973 537.446 94.2531C532.646 94.2531 527.686 94.2531 522.886 94.2531C522.086 100.973 521.286 108.013 520.646 115.213H478.086C487.846 78.0931 495.846 40.8131 501.766 3.37311H558.566Z" fill="#1D1D1D"/>
<path d="M422.707 44.8131C415.027 44.9731 407.348 45.4531 399.828 45.9331V3.37311H485.587V45.9331C477.747 45.4531 470.068 44.9731 462.388 44.8131C462.068 68.3331 462.548 91.8531 463.988 115.213H421.268C422.548 91.6931 423.027 68.1731 422.707 44.8131Z" fill="#1D1D1D"/>
<path d="M360.116 11.0531H360.276L348.436 50.2531C340.276 43.0531 321.076 36.1731 310.836 36.9731C304.596 37.6131 303.956 44.6531 312.116 44.6531C329.076 44.8131 364.276 51.5331 361.716 83.3731C359.156 116.173 332.276 118.413 315.476 118.573C256.596 119.533 266.196 67.0531 277.396 60.4931C282.836 74.2531 305.076 80.6531 317.876 78.7331C324.276 77.9331 325.716 71.6931 317.876 71.6931C308.596 71.5331 269.396 68.1731 271.796 34.7331C273.396 12.4931 287.156 0.493093 316.756 0.0130894C334.196 -0.306916 348.276 5.29309 360.116 11.0531Z" fill="#1D1D1D"/>
<path d="M263.554 11.0531H263.714L251.874 50.2531C243.714 43.0531 224.514 36.1731 214.274 36.9731C208.034 37.6131 207.394 44.6531 215.554 44.6531C232.514 44.8131 267.714 51.5331 265.154 83.3731C262.594 116.173 235.714 118.413 218.914 118.573C160.034 119.533 169.634 67.0531 180.834 60.4931C186.274 74.2531 208.514 80.6531 221.314 78.7331C227.714 77.9331 229.154 71.6931 221.314 71.6931C212.034 71.5331 172.834 68.1731 175.234 34.7331C176.834 12.4931 190.594 0.493093 220.194 0.0130894C237.634 -0.306916 251.714 5.29309 263.554 11.0531Z" fill="#1D1D1D"/>
<path d="M78.8049 3.37311H164.565V45.9331C149.685 44.8131 134.805 44.3331 119.925 44.4931C119.765 47.3731 119.765 50.0931 119.765 52.9731C131.605 53.1331 143.445 52.9731 155.125 52.4931V65.9331C143.285 65.4531 131.605 65.2931 119.765 65.6131C119.765 68.3331 119.765 71.2131 119.925 74.0931C135.605 74.4131 151.445 73.9331 167.445 72.6531V115.213H78.8049C80.7249 77.7731 80.7249 40.4931 78.8049 3.37311Z" fill="#1D1D1D"/>
<path d="M74.7599 80.9731V115.213H0.679932C2.59993 77.7731 2.59993 40.4931 0.679932 3.37311H43.2399C41.7999 29.7731 41.3199 56.0131 41.9599 82.2531C52.8399 82.2531 63.7199 81.7731 74.7599 80.9731Z" fill="#1D1D1D"/>
<path d="M691.984 104.745H723.904C728.224 131.265 735.304 157.185 746.704 168.465C742.624 162.825 736.744 146.505 735.064 140.745C735.064 127.305 734.944 118.065 734.224 104.745H766.264C764.584 132.825 764.584 160.785 766.264 188.625H741.184C731.584 176.385 719.344 138.465 719.344 138.465C719.824 157.665 719.464 171.105 720.424 188.625H691.984C693.424 160.545 693.424 132.585 691.984 104.745Z" fill="#1D1D1D"/>
<path d="M645.045 191.145C626.085 190.785 610.965 176.025 611.085 146.865C611.085 132.105 622.365 102.465 655.005 102.585C671.925 102.585 686.445 112.905 685.845 135.225H660.765C660.765 131.505 658.245 128.745 654.165 128.745C648.765 128.625 642.285 134.865 641.085 145.425C639.285 162.345 650.205 173.625 658.845 162.945C660.885 159.945 662.085 157.545 662.445 150.825C657.285 150.825 652.245 150.945 646.245 151.185V141.105C658.365 141.585 686.325 141.105 686.325 141.105C684.885 157.785 685.725 171.705 687.165 188.625H664.005L669.405 158.025C667.725 162.345 664.845 192.105 645.045 191.145Z" fill="#1D1D1D"/>
<path d="M575.148 188.625C576.588 160.545 576.588 132.585 575.148 104.745H607.068C605.508 132.825 605.508 160.785 607.068 188.625H575.148Z" fill="#1D1D1D"/>
<path d="M569.686 110.505H569.806L560.926 139.905C554.806 134.505 540.406 129.345 532.726 129.945C528.046 130.425 527.566 135.705 533.686 135.705C546.406 135.825 572.806 140.865 570.886 164.745C568.966 189.345 548.806 191.025 536.206 191.145C492.046 191.865 499.246 152.505 507.646 147.585C511.726 157.905 528.406 162.705 538.006 161.265C542.806 160.665 543.886 155.985 538.006 155.985C531.046 155.865 501.646 153.345 503.446 128.265C504.646 111.585 514.966 102.585 537.166 102.225C550.246 101.985 560.806 106.185 569.686 110.505Z" fill="#1D1D1D"/>
<path d="M431.124 104.745H495.444V136.665C484.284 135.825 473.124 135.465 461.964 135.585C461.844 137.745 461.844 139.785 461.844 141.945C470.724 142.065 479.604 141.945 488.364 141.585V151.665C479.484 151.305 470.724 151.185 461.844 151.425C461.844 153.465 461.844 155.625 461.964 157.785C473.724 158.025 485.604 157.665 497.604 156.705V188.625H431.124C432.564 160.545 432.564 132.585 431.124 104.745Z" fill="#1D1D1D"/>
<path d="M383.97 104.625C392.97 104.505 425.73 101.985 427.05 145.665V147.345C427.17 171.705 413.25 188.625 401.49 188.745C401.37 188.745 400.89 188.625 400.77 188.625C379.89 188.505 375.21 162.225 373.53 157.905C375.57 167.025 377.73 176.265 383.37 188.625H355.89C355.89 186.465 356.01 185.265 356.13 182.985C357.33 156.825 357.21 130.665 355.89 104.625H383.97Z" fill="#1D1D1D"/>
<path d="M257.687 104.745H322.007V136.665C310.847 135.825 299.687 135.465 288.527 135.585C288.407 137.745 288.407 139.785 288.407 141.945C297.287 142.065 306.167 141.945 314.927 141.585V151.665C306.047 151.305 297.287 151.185 288.407 151.425C288.407 153.465 288.407 155.625 288.527 157.785C300.287 158.025 312.167 157.665 324.167 156.705V188.625H257.687C259.127 160.545 259.127 132.585 257.687 104.745Z" fill="#1D1D1D"/>
<path d="M250.029 154.305C250.029 154.305 263.709 191.145 235.029 191.145C217.989 191.265 210.789 162.705 206.349 144.465C205.269 156.465 212.469 175.665 211.389 188.745H181.749C183.189 160.785 183.189 132.585 181.749 104.745C181.749 104.745 211.389 104.505 222.549 104.865C236.229 105.345 253.989 111.225 250.509 134.745C247.389 155.985 228.549 155.625 218.109 151.185C220.749 153.705 224.109 156.105 228.429 157.665C237.669 161.025 247.869 159.465 250.029 154.305Z" fill="#1D1D1D"/>
<path d="M167.785 114.705C174.025 123.105 177.625 134.505 177.625 146.385C177.625 158.265 174.025 169.665 167.785 178.065C161.545 186.465 152.185 191.145 139.945 191.145C128.905 191.265 117.985 186.465 111.745 178.065C105.505 169.665 102.025 158.265 102.025 146.385C102.025 134.505 105.505 123.105 111.745 114.705C115.105 110.145 123.385 102.465 139.705 102.225C155.185 101.865 163.945 109.545 167.785 114.705Z" fill="#1D1D1D"/>
<path d="M60.4649 172.305H42.7049C41.5049 158.025 38.9849 146.265 36.2249 137.985C35.8649 156.105 36.1049 170.625 37.1849 188.625H5.26489C6.70489 160.545 6.70489 132.585 5.26489 104.745H42.3449C43.5449 120.825 48.3449 140.865 51.5849 155.625C54.7049 140.865 59.5049 120.825 60.7049 104.745H97.9049C96.3449 132.585 96.3449 160.545 97.9049 188.625H65.8649C66.9449 170.625 67.3049 156.105 66.9449 137.985C64.1849 146.265 61.6649 158.025 60.4649 172.305Z" fill="#1D1D1D"/>
<path d="M728.155 99.7453L728.839 103.942C728.997 104.915 729.16 105.887 729.326 106.857C729.295 106.251 729.264 105.637 729.23 105.015L728.946 99.7453H771.571L771.255 105.044C769.587 132.926 769.587 160.686 771.255 188.324L771.574 193.625H738.751L737.249 191.711C734.491 188.194 731.734 183.111 729.202 177.763C727.668 174.522 726.167 171.072 724.747 167.634C724.842 174.298 725.009 180.923 725.416 188.352L725.705 193.625H686.721L686.978 188.625H687.165C687.125 188.154 687.086 187.685 687.047 187.219C688.42 159.695 688.402 132.29 686.99 105.003L686.719 99.7453H728.155ZM691.983 104.745C693.423 132.585 693.423 160.545 691.983 188.625H720.424C719.464 171.105 719.824 157.665 719.344 138.465C719.344 138.465 731.204 175.209 740.731 188.032L741.184 188.625H766.264C764.584 160.785 764.584 132.825 766.264 104.745H734.224C734.944 118.065 735.063 127.305 735.063 140.745C736.744 146.505 742.624 162.825 746.704 168.465C735.304 157.185 728.223 131.265 723.903 104.745H691.983Z" fill="#F7F4EB"/>
<path d="M655.022 97.5852C664.454 97.5887 673.64 100.472 680.433 106.905C687.306 113.414 691.174 123.036 690.843 135.36L690.824 136.027L691.783 136.011L691.307 141.535C689.934 157.431 690.679 170.773 692.057 187.135C692.032 187.632 692.009 188.128 691.983 188.625H692.183L692.608 193.625H658.045L658.273 192.325C654.753 194.821 650.378 196.375 644.95 196.144V196.145C634.126 195.939 624.195 191.579 617.064 183.001C609.988 174.488 606.022 162.261 606.085 146.845C606.09 138.446 609.225 126.295 616.799 116.154C624.532 105.798 636.933 97.5244 655.005 97.5852H655.022ZM655.765 135.225C655.765 134.509 655.54 134.207 655.437 134.103C655.35 134.015 655.039 133.745 654.165 133.745H654.109L654.054 133.744C653.32 133.728 651.722 134.194 649.956 136.21C651.734 136.249 653.697 136.277 655.765 136.293V135.225ZM656.767 155.874C653.669 155.927 650.463 156.023 646.913 156.162C647.617 158.363 648.599 160.009 649.593 161.007C650.609 162.027 651.354 162.143 651.766 162.11C652.203 162.074 653.308 161.779 654.836 159.945C655.67 158.705 656.157 157.83 656.527 156.711C656.611 156.458 656.689 156.181 656.767 155.874ZM685.845 135.225L685.862 134.188C685.989 112.928 672.112 102.906 655.796 102.593L655.005 102.585C622.365 102.465 611.085 132.105 611.085 146.865C610.965 176.025 626.085 190.785 645.045 191.145C664.845 192.105 667.725 162.346 669.405 158.026L664.005 188.625H687.165C685.725 171.705 684.885 157.785 686.325 141.106C686.325 141.106 658.365 141.586 646.245 141.106V151.185C652.245 150.945 657.285 150.825 662.445 150.825C662.085 157.545 660.885 159.946 658.845 162.946C650.205 173.625 639.285 162.345 641.085 145.425C642.285 134.865 648.765 128.625 654.165 128.745C658.245 128.745 660.764 131.505 660.765 135.225H685.845Z" fill="#F7F4EB"/>
<path d="M612.354 99.7453L612.06 105.023C610.51 132.919 610.51 160.693 612.06 188.346L612.355 193.625H569.885L570.154 188.369C571.586 160.459 571.585 132.67 570.154 105.003L569.883 99.7453H612.354ZM575.147 104.745C576.587 132.585 576.587 160.545 575.147 188.625H607.067C605.507 160.785 605.507 132.825 607.067 104.745H575.147Z" fill="#F7F4EB"/>
<path d="M538.402 97.216C551.503 97.2509 562.156 101.364 570.821 105.505H575.186C575.251 106.792 575.313 108.079 575.372 109.366L565.898 140.733C568.182 142.61 570.245 144.842 571.908 147.493C574.925 152.303 576.427 158.179 575.87 165.133L575.871 165.134C574.782 179.085 568.302 187.238 559.83 191.575C551.85 195.661 542.617 196.082 536.286 196.144L536.287 196.145C524.529 196.336 515.605 193.869 509.125 189.473C502.887 185.241 499.308 179.486 497.604 173.566V156.705C497.46 156.717 497.316 156.726 497.172 156.737C497.281 156.242 497.396 155.755 497.523 155.279C498.204 152.73 499.162 150.354 500.347 148.353C500.957 147.32 501.692 146.282 502.561 145.354C499.537 140.692 497.957 134.899 498.459 127.907L498.529 127.034C499.342 118.071 502.661 110.508 509.317 105.212C516.03 99.8716 525.42 97.4161 537.074 97.2258L538.402 97.216ZM536.134 102.248C514.646 102.868 504.628 111.846 503.446 128.265C501.646 153.345 531.046 155.866 538.006 155.986C543.886 155.986 542.806 160.665 538.006 161.265C528.406 162.705 511.726 157.905 507.646 147.585C499.246 152.506 492.046 191.865 536.206 191.145C548.806 191.025 568.966 189.345 570.886 164.745C572.806 140.865 546.406 135.825 533.686 135.705C527.566 135.705 528.046 130.426 532.726 129.945C540.406 129.345 554.806 134.505 560.926 139.905L569.806 110.505H569.686C560.806 106.185 550.246 101.985 537.166 102.225L536.134 102.248Z" fill="#F7F4EB"/>
<path d="M431.124 104.745C432.564 132.585 432.564 160.545 431.124 188.625H497.604V156.705C485.604 157.665 473.724 158.025 461.964 157.785C461.874 156.165 461.851 154.545 461.846 152.976L461.845 151.425C470.725 151.185 479.484 151.305 488.364 151.665V141.585C479.604 141.945 470.725 142.065 461.845 141.945C461.845 139.785 461.844 137.745 461.964 135.585C473.124 135.465 484.284 135.825 495.444 136.665V104.745H431.124ZM500.444 142.056L495.069 141.652C494.501 141.609 493.932 141.567 493.364 141.527V152.006C494.643 151.917 495.923 151.823 497.205 151.721L502.604 151.289V155.693C501.127 160.58 500.724 166.892 502.604 172.833V193.625H425.861L426.131 188.369C427.562 160.459 427.562 132.67 426.131 105.003L425.859 99.7453H500.444V142.056Z" fill="#F7F4EB"/>
<path d="M427.05 145.665C425.812 104.715 396.941 104.37 385.922 104.586L383.97 104.625H355.89C357.21 130.665 357.33 156.826 356.13 182.986C356.01 185.265 355.89 186.465 355.89 188.625H383.37C377.73 176.265 375.57 167.025 373.53 157.905C375.21 162.227 379.89 188.505 400.77 188.625C400.86 188.625 401.153 188.693 401.344 188.727L401.49 188.745C413.25 188.625 427.17 171.705 427.05 147.345V145.665ZM432.05 147.32L432.045 148.545C431.881 161.145 428.229 172.015 422.865 179.938C417.462 187.92 409.729 193.662 401.541 193.745H401.49C401.29 193.745 401.127 193.733 401.031 193.725C400.927 193.716 400.838 193.706 400.774 193.697C400.649 193.681 400.542 193.662 400.475 193.651C400.417 193.64 400.358 193.628 400.306 193.617C396.473 193.54 393.105 192.738 390.15 191.441L391.147 193.625H350.89V188.625C350.89 186.3 351.024 184.84 351.135 182.749C352.327 156.759 352.209 130.762 350.896 104.878L350.63 99.6252H383.903C388.087 99.5694 399.868 98.7836 410.654 104.262C416.181 107.069 421.437 111.495 425.361 118.315C429.262 125.093 431.699 133.977 432.048 145.514L432.05 145.59V147.32Z" fill="#F7F4EB"/>
<path d="M257.687 104.745C259.127 132.585 259.127 160.545 257.687 188.625H324.167V156.705C312.167 157.665 300.286 158.025 288.526 157.785C288.436 156.165 288.414 154.545 288.408 152.976L288.407 151.425C297.287 151.185 306.047 151.305 314.927 151.665V141.585C306.167 141.945 297.287 142.065 288.407 141.945C288.407 139.785 288.406 137.745 288.526 135.585C299.686 135.465 310.847 135.825 322.007 136.665V104.745H257.687ZM327.007 142.056L321.632 141.652C321.064 141.609 320.495 141.567 319.927 141.527V152.006C321.206 151.917 322.486 151.823 323.768 151.721L329.167 151.289V193.625H252.424L252.693 188.369C254.125 160.459 254.124 132.67 252.693 105.003L252.422 99.7453H327.007V142.056Z" fill="#F7F4EB"/>
<path d="M197.956 99.6701C205.645 99.657 214.482 99.6777 220.376 99.8059L222.711 99.8674L222.725 99.8684L223.413 99.8967C230.582 100.233 239.338 101.981 246.045 107.227C253.382 112.966 257.415 122.211 255.455 135.471L255.456 135.472C254.872 139.447 253.779 142.91 252.23 145.87L254.717 152.565L250.029 154.305C254.716 152.564 254.718 152.569 254.718 152.569L254.72 152.572C254.721 152.576 254.722 152.58 254.724 152.584C254.727 152.593 254.731 152.604 254.735 152.616C254.745 152.643 254.758 152.679 254.773 152.723C254.805 152.81 254.849 152.932 254.902 153.086C255.009 153.395 255.156 153.834 255.329 154.383C255.675 155.48 256.131 157.03 256.579 158.887C257.466 162.556 258.376 167.62 258.283 172.815C258.191 177.938 257.111 183.824 253.384 188.504C249.482 193.403 243.371 196.136 235.063 196.144L235.064 196.145C235.057 196.145 235.049 196.144 235.041 196.144C235.037 196.144 235.033 196.145 235.029 196.145C226.913 196.188 220.925 191.508 216.494 185.452C216.507 186.718 216.471 187.956 216.372 189.156L215.993 193.745H176.485L176.756 188.489C178.187 160.699 178.187 132.671 176.756 105.003L176.486 99.7873L181.709 99.7453H181.73C181.745 99.7452 181.767 99.7446 181.795 99.7444C181.852 99.7439 181.937 99.7432 182.047 99.7424C182.268 99.7407 182.593 99.7385 183.01 99.7356C183.844 99.7297 185.048 99.7216 186.526 99.7131C189.484 99.6962 193.545 99.6777 197.956 99.6701ZM222.549 104.865C211.389 104.505 181.749 104.745 181.749 104.745C183.189 132.585 183.189 160.785 181.749 188.745H211.39L211.434 188.128C212.246 175.067 205.286 156.278 206.35 144.465C210.79 162.705 217.989 191.265 235.029 191.145C263.709 191.145 250.029 154.305 250.029 154.305C247.869 159.465 237.67 161.025 228.43 157.665C224.11 156.105 220.749 153.705 218.109 151.185C228.549 155.625 247.389 155.985 250.509 134.745C253.989 111.225 236.229 105.345 222.549 104.865Z" fill="#F7F4EB"/>
<path d="M177.625 146.385C177.625 134.505 174.025 123.105 167.785 114.705C163.945 109.545 155.185 101.865 139.705 102.225L138.946 102.241C123.128 102.704 115.053 110.217 111.745 114.705C105.505 123.105 102.025 134.505 102.025 146.385L102.035 147.497C102.245 158.975 105.7 169.928 111.745 178.066C117.985 186.465 128.905 191.265 139.945 191.145C151.803 191.145 160.958 186.753 167.191 178.842L167.785 178.066C173.83 169.928 177.397 158.975 177.614 147.497L177.625 146.385ZM182.625 146.385C182.625 158.815 178.987 170.911 172.441 180.16L171.799 181.047C164.536 190.824 153.639 196.13 139.999 196.144L140 196.145C127.798 196.277 115.456 191.083 108.079 181.506L107.731 181.047C100.761 171.664 97.0254 159.178 97.0254 146.385C97.0254 133.592 100.762 121.106 107.731 111.724C111.812 106.194 121.232 97.7605 138.789 97.2443L139.632 97.2258C156.497 96.8478 166.568 105.022 171.35 111.135L171.796 111.72L171.799 111.724L172.441 112.61C178.987 121.859 182.625 133.955 182.625 146.385Z" fill="#F7F4EB"/>
<path d="M46.9854 99.7453L47.3311 104.373C47.9617 112.824 49.6233 122.43 51.5342 131.838C53.4265 122.43 55.0876 112.831 55.7188 104.373L56.0645 99.7453H103.193L102.897 105.025C101.348 132.677 101.348 160.452 102.897 188.348L103.19 193.625H60.5557L60.874 188.325C61.1026 184.516 61.2964 180.865 61.46 177.305H41.6035C41.7585 180.866 41.9473 184.517 42.1758 188.325L42.4941 193.625H0.00195312L0.271484 188.369L0.401367 185.753C1.70127 158.722 1.65783 131.806 0.271484 105.003L0 99.7453H46.9854ZM5.26465 104.745C6.70464 132.585 6.70465 160.545 5.26465 188.625H37.1846C36.1046 170.625 35.8646 156.105 36.2246 137.986C38.8983 146.007 41.3475 157.294 42.5889 170.974L42.7051 172.305H60.4648C61.6648 158.025 64.1854 146.265 66.9453 137.986C67.3053 156.105 66.9452 170.625 65.8652 188.625H97.9053C96.3453 160.545 96.3453 132.585 97.9053 104.745H60.7051C59.5051 120.825 54.705 140.865 51.585 155.625C48.345 140.865 43.5447 120.825 42.3447 104.745H5.26465Z" fill="#F7F4EB"/>
<path d="M139.285 126.417C141.229 126.254 143.253 130.713 144.294 136.954C148.332 133.167 152 131.197 153.365 132.35C154.855 133.609 153.134 138.192 149.458 143.34C154.99 143.517 158.976 144.718 159.126 146.498C159.289 148.442 154.83 150.467 148.589 151.508C152.376 155.545 154.348 159.212 153.195 160.577C151.936 162.067 147.351 160.346 142.202 156.67C142.025 162.202 140.825 166.189 139.045 166.339C137.101 166.502 135.076 162.045 134.034 155.805C129.998 159.591 126.332 161.561 124.968 160.408C123.478 159.149 125.198 154.563 128.875 149.413C123.342 149.237 119.354 148.037 119.204 146.256C119.041 144.313 123.499 142.288 129.739 141.247C125.953 137.21 123.984 133.544 125.137 132.179C126.396 130.689 130.979 132.409 136.127 136.085C136.304 130.553 137.505 126.567 139.285 126.417Z" fill="#F7F4EB"/>
<path d="M390.428 126.437C392.859 125.865 397.141 132.004 399.993 140.148C402.845 148.293 403.187 155.359 400.757 155.931C398.326 156.503 394.043 150.363 391.191 142.218C388.339 134.074 387.997 127.008 390.428 126.437Z" fill="#F7F4EB"/>
<path d="M205.604 121.054C206.715 118.818 214.174 119.435 222.266 122.432C230.358 125.43 236.019 129.674 234.909 131.91C233.799 134.147 226.338 133.53 218.246 130.532C210.154 127.534 204.494 123.291 205.604 121.054Z" fill="#F7F4EB"/>
<path d="M529.176 76.8578C527.441 76.6903 526.225 75.4947 525.381 73.5282C522.723 70.9536 519.6 66.0258 517.097 60.1018C513.172 50.8136 512.253 42.5978 515.046 41.7518C517.153 41.1144 520.771 44.8555 524.106 50.721C524.945 44.756 526.724 40.7743 528.796 40.9883C530.677 41.1835 532.337 44.7893 533.28 50.048C536.281 43.5221 539.77 39.4456 541.876 40.4353C544.516 41.6773 543.982 50.4072 540.683 59.9348C538.45 66.3862 535.519 71.5484 533.04 73.8255C532.326 75.7298 531.143 76.8125 529.176 76.8578Z" fill="#F7F4EB"/>
</svg>
