<svg width="142" height="142" viewBox="0 0 142 142" fill="none" xmlns="http://www.w3.org/2000/svg">
<path d="M66.0705 0.051984C72.8962 -1.0077 81.1597 14.2404 86.3859 36.0295C99.7073 21.6497 112.175 13.7827 117.283 17.5178C122.858 21.5943 117.921 38.2132 106.215 57.3108C125.798 56.5638 140.172 59.8175 141.143 66.0696C142.202 72.8945 126.957 81.1568 105.172 86.383C119.551 99.704 127.418 112.172 123.683 117.28C119.606 122.855 102.983 117.918 83.882 106.208C84.63 125.794 81.3777 140.172 75.1252 141.143C68.3008 142.202 60.0381 126.96 54.8117 105.178C41.4931 119.553 29.0301 127.417 23.923 123.683C18.3473 119.605 23.2858 102.979 34.9982 83.8752C15.4059 84.625 1.0229 81.3724 0.0519206 75.1184C-1.00695 68.2937 14.2366 60.0302 36.0207 54.8039C21.6461 41.4854 13.7824 29.0214 17.5168 23.9143C21.5931 18.3395 38.2137 23.2749 57.3117 34.9817C56.5644 15.3978 59.8182 1.02269 66.0705 0.051984Z" fill="#FFFFCD"/>
<ellipse cx="57" cy="60.5" rx="6" ry="9.5" fill="#F7F4EB"/>
<ellipse cx="59.5" cy="62.5" rx="3.5" ry="5.5" fill="#1D1D1D"/>
<ellipse cx="84" cy="60.5" rx="6" ry="9.5" fill="#F7F4EB"/>
<ellipse cx="81.5" cy="62.5" rx="3.5" ry="5.5" fill="#1D1D1D"/>
<path d="M71.1846 89C65.7979 89 62.1972 85.4819 60.3826 83.1118C59.8315 82.3919 60.5314 81.5333 61.394 81.8124C64.1511 82.7046 68.6283 84.0122 71.1846 84.0122C73.7368 84.0122 78.044 82.7088 80.6929 81.8167C81.5417 81.5309 82.2539 82.3598 81.7321 83.0877C80.0329 85.4581 76.5896 89 71.1846 89Z" fill="#1D1D1D"/>
<path d="M57.0645 84.0122C59.5645 83.0122 60.5645 82.0122 60.5645 79.0122M71.1846 89C65.7979 89 62.1972 85.4819 60.3826 83.1118C59.8315 82.3919 60.5314 81.5333 61.394 81.8124C64.1511 82.7046 68.6283 84.0122 71.1846 84.0122C73.7368 84.0122 78.044 82.7088 80.6929 81.8167C81.5417 81.5309 82.2539 82.3598 81.7321 83.0877C80.0329 85.4581 76.5896 89 71.1846 89Z" stroke="#1D1D1D" stroke-width="2" stroke-linecap="round"/>
<path d="M85.0645 83.5122C82.5645 82.5122 81.5645 81.5122 81.5645 78.5122" stroke="#1D1D1D" stroke-width="2" stroke-linecap="round"/>
</svg>
