<svg width="136" height="121" viewBox="0 0 136 121" fill="none" xmlns="http://www.w3.org/2000/svg">
<path d="M135.993 60.5C135.993 71.6381 120.182 78.6321 114.98 87.6293C109.613 96.9088 111.278 114.05 102.003 119.419C92.7285 124.788 79.1326 114.759 67.9931 114.759C56.8536 114.759 42.9756 124.623 33.9828 119.419C24.7079 114.05 26.373 96.9088 21.0062 87.6293C15.8114 78.6321 0 71.6381 0 60.5C0 49.3619 15.8114 42.3679 21.0131 33.3707C26.3798 24.0912 24.7148 6.95037 33.9897 1.58096C43.2646 -3.78846 56.8605 6.24133 68 6.24133C79.1395 6.24133 93.0175 -3.62325 102.01 1.58096C111.285 6.95037 109.62 24.0912 114.987 33.3707C120.354 42.6501 136 49.3619 136 60.5H135.993Z" fill="#B0BC68"/>
<path d="M52.1876 70.1641C53.481 70.5281 56.4319 70.6497 57.8874 68.2246" stroke="#1D1D1D" stroke-width="2.4" stroke-linecap="round"/>
<path d="M83.3724 71.9008C82.047 71.6802 79.3244 70.5356 79.0382 67.7217" stroke="#1D1D1D" stroke-width="2.4" stroke-linecap="round"/>
<ellipse cx="54" cy="49.5" rx="6" ry="9.5" fill="#F7F4EB"/>
<ellipse cx="54.5" cy="45.5" rx="3.5" ry="5.5" fill="#1D1D1D"/>
<ellipse cx="81" cy="49.5" rx="6" ry="9.5" fill="#F7F4EB"/>
<ellipse cx="80.5" cy="53.5" rx="3.5" ry="5.5" fill="#1D1D1D"/>
<path d="M56 71C56 71 60.0615 79 68.1846 79C76.3077 79 80 71 80 71" stroke="#1D1D1D" stroke-width="2.4" stroke-linecap="round"/>
<path d="M78.995 74.6816C81.3235 76.7515 83.3216 79.3117 84.0272 81.8789C84.386 83.1849 84.4233 84.5451 83.9354 85.835C83.4446 87.1322 82.4703 88.2326 81.035 89.0938C79.5886 89.9615 78.1068 90.013 76.7587 89.5186C75.4651 89.0441 74.35 88.092 73.452 87.0361C71.6763 84.9479 70.4211 82.0565 70.2245 80.1904L70.1356 79.3477L70.9003 78.9824C72.3655 78.2823 75.6402 76.4634 77.3436 74.7354L78.1434 73.9238L78.995 74.6816ZM75.9774 77.6445C75.7454 77.3355 75.3071 77.273 74.9979 77.5049C74.6888 77.7369 74.6264 78.1752 74.8583 78.4844C75.3519 79.1426 76.1187 80.2067 76.8094 81.251C77.4313 82.1912 77.9443 83.0464 78.1737 83.5781L78.2538 83.7861L78.3114 83.915C78.4741 84.1972 78.8185 84.3355 79.1395 84.2285C79.5061 84.1061 79.7041 83.7094 79.5819 83.3428C79.3473 82.6393 78.6654 81.5202 77.9764 80.4785C77.2673 79.4063 76.4838 78.3197 75.9774 77.6445Z" fill="#1D1D1D"/>
</svg>
