<svg width="127" height="138" viewBox="0 0 127 138" fill="none" xmlns="http://www.w3.org/2000/svg">
<path d="M63.7562 -1.8661e-05C73.8284 0.11222 82.7157 10.0091 88.4808 25.4365C89.1455 27.2152 90.9179 28.3422 92.8109 28.1933C108.348 26.9715 120.4 30.6212 124.786 39.2705C129.064 47.7044 125.194 59.1988 115.568 70.7041C125.553 82.4183 129.622 94.1699 125.263 102.746C120.332 112.447 105.757 115.844 87.4408 113.124C81.3333 128.33 72.2563 137.96 62.2181 137.849C52.7729 137.743 44.3705 129.034 38.6068 115.228C37.8925 113.517 36.1471 112.456 34.3001 112.615C18.4761 113.978 6.17228 110.348 1.72982 101.589C-2.48645 93.2746 1.21389 81.9856 10.5423 70.6445C1.5979 59.5047 -1.88208 48.4718 2.26497 40.3135C6.89489 31.2057 20.0261 27.6565 36.7728 29.5078C42.8129 11.5676 52.7023 -0.122801 63.7562 -1.8661e-05Z" fill="#F8BAD1"/>
<path d="M47.9418 78.9992C49.4457 79.1267 52.9029 78.655 54.7009 75.7486" stroke="#1D1D1D" stroke-width="2.4" stroke-linecap="round"/>
<path d="M79.129 81.0886C77.6898 80.6341 74.6723 78.8821 74.1158 75.5102" stroke="#1D1D1D" stroke-width="2.4" stroke-linecap="round"/>
<ellipse cx="49" cy="51.5" rx="6" ry="9.5" fill="#F7F4EB"/>
<ellipse cx="51.5" cy="53.5" rx="3.5" ry="5.5" fill="#1D1D1D"/>
<ellipse cx="76" cy="51.5" rx="6" ry="9.5" fill="#F7F4EB"/>
<ellipse cx="78.5" cy="53.5" rx="3.5" ry="5.5" fill="#1D1D1D"/>
<path d="M52 79C52 79 56.0615 87 64.1846 87C72.3077 87 76 79 76 79" stroke="#1D1D1D" stroke-width="2.4" stroke-linecap="round"/>
</svg>
