<svg width="145" height="145" viewBox="0 0 145 145" fill="none" xmlns="http://www.w3.org/2000/svg">
<path d="M69.0983 5.49847C70.6619 2.97108 74.3381 2.97108 75.9017 5.49848L87.4542 24.1721C88.4274 25.7452 90.3523 26.4458 92.109 25.8663L112.962 18.9873C115.784 18.0563 118.6 20.4192 118.174 23.3604L115.02 45.0911C114.754 46.9217 115.779 48.6957 117.497 49.3809L137.893 57.5153C140.653 58.6163 141.292 62.2366 139.074 64.2153L122.69 78.835C121.31 80.0666 120.955 82.0839 121.83 83.7132L132.226 103.055C133.633 105.673 131.795 108.856 128.824 108.947L106.876 109.615C105.027 109.671 103.458 110.988 103.081 112.799L98.6124 134.297C98.0075 137.207 94.5531 138.464 92.2194 136.624L74.9767 123.028C73.5242 121.883 71.4758 121.883 70.0233 123.028L52.7806 136.624C50.4469 138.464 46.9925 137.207 46.3876 134.297L41.9185 112.799C41.5421 110.988 39.9729 109.671 38.1239 109.615L16.1758 108.947C13.2052 108.856 11.3672 105.673 12.7741 103.055L23.1697 83.7132C24.0455 82.0838 23.6898 80.0666 22.3096 78.835L5.92569 64.2153C3.7082 62.2366 4.34656 58.6163 7.10707 57.5153L27.5031 49.3809C29.2213 48.6957 30.2455 46.9217 29.9799 45.0911L26.8264 23.3604C26.3996 20.4192 29.2157 18.0563 32.0381 18.9873L52.891 25.8663C54.6477 26.4458 56.5726 25.7452 57.5458 24.1721L69.0983 5.49847Z" fill="#BCC2F4"/>
<ellipse cx="59.0002" cy="62.5" rx="6" ry="9.5" fill="#F7F4EB"/>
<ellipse cx="59.5002" cy="63.5" rx="3.5" ry="5.5" fill="#1D1D1D"/>
<ellipse cx="86.0002" cy="62.5" rx="6" ry="9.5" fill="#F7F4EB"/>
<ellipse cx="86.5002" cy="63.5" rx="3.5" ry="5.5" fill="#1D1D1D"/>
<path d="M68.8778 86.4362C70.4364 83.1227 73.177 85.2352 74.1611 86.5947C75.4978 83.0309 80.9802 84.7399 80.1005 89.4758C79.2207 94.2117 76.4598 96.0596 73.8794 95.9821C70.0528 95.8673 66.9077 90.6245 68.8778 86.4362Z" fill="#1D1D1D"/>
<path d="M63.4184 88.2017C69.4403 91.3622 77.5733 91.6856 84.5589 87.6298" stroke="#1D1D1D" stroke-width="2.4" stroke-linecap="round"/>
<path d="M60.5225 89.1319C61.701 89.1277 64.0409 88.313 63.9726 85.0888" stroke="#1D1D1D" stroke-width="2.4" stroke-linecap="round"/>
<path d="M87.6434 88.7097C86.465 88.6935 84.1334 87.8554 84.2341 84.6321" stroke="#1D1D1D" stroke-width="2.4" stroke-linecap="round"/>
</svg>
