<svg width="149" height="150" viewBox="0 0 149 150" fill="none" xmlns="http://www.w3.org/2000/svg">
<path d="M102.262 37.9645C108.168 29.6984 111.121 20.2514 114.665 10.8044C114.665 10.214 117.027 11.3949 117.618 12.5757C119.98 26.1558 117.027 39.1454 113.483 52.135C112.893 56.2681 113.483 62.7629 118.799 63.3533C129.429 63.3533 138.879 56.8585 147.147 50.9542C150.1 51.5446 148.918 54.4968 147.737 56.2681C140.06 66.896 131.201 73.9812 120.57 81.6569C117.027 84.6091 112.893 89.923 117.027 94.0561C125.295 101.141 136.516 100.551 146.556 104.094C147.147 104.094 145.966 106.455 144.784 107.046C131.792 111.179 117.618 109.998 104.034 108.817C99.9 108.817 95.7659 111.769 95.1753 115.902C95.1753 118.264 96.9471 120.626 98.1283 122.987C101.081 130.073 105.215 135.977 111.121 141.291C112.893 143.062 109.94 144.243 108.759 144.243C95.1753 140.701 86.9072 129.482 77.4578 120.035C73.3237 116.493 66.8273 114.721 64.465 120.035C60.3309 128.892 60.3309 138.929 60.3309 148.376C60.3309 150.738 57.378 150.148 56.7874 148.967C50.291 137.158 49.1098 123.578 49.1098 110.588C49.1098 106.455 46.1569 101.732 42.0228 101.732C36.117 101.141 31.3923 106.455 27.2582 109.998C26.077 111.179 24.8959 112.95 23.1241 114.131L17.8089 121.216C17.2183 121.807 16.6277 122.397 16.0371 122.397C14.856 121.807 14.2654 120.626 14.2654 119.445C17.2183 104.684 26.077 94.6465 34.3452 82.8378C36.7076 79.2951 36.7076 73.9812 32.5735 72.8003C21.943 69.2577 11.3125 72.2099 0.681947 73.3908C0.0913636 73.3908 -0.49922 71.029 0.681947 69.8482C13.0842 60.4012 27.2582 58.6298 40.8416 53.3159C43.204 52.7255 46.1569 49.1829 44.9757 46.2307C40.2511 36.7837 29.6205 32.0602 20.1712 27.3367C19.5806 26.7462 18.3995 26.7462 18.99 25.5654C19.5806 24.3845 21.3524 23.2036 23.1241 23.2036C34.9358 24.3845 46.7475 28.5175 57.378 33.8315C61.5121 36.1932 66.8273 37.9645 70.9614 33.8315C72.7332 22.6132 68.0085 11.3949 63.2838 1.35744C64.465 0.767 65.6462 -1.00431 67.4179 0.767C75.6861 7.26181 81.0013 16.1184 85.726 24.9749C86.9072 27.3367 87.4977 29.108 88.6789 31.4697C89.2695 32.0602 88.6789 33.241 89.2695 33.8315C91.0412 36.7837 93.4036 38.555 96.3565 39.7359C98.1283 40.3263 100.491 40.3263 102.262 37.9645Z" fill="#F8BAD1"/>
<ellipse cx="64" cy="61.5" rx="6" ry="9.5" fill="#F7F4EB"/>
<ellipse cx="61.5" cy="62.5" rx="3.5" ry="5.5" fill="#1D1D1D"/>
<ellipse cx="91" cy="61.5" rx="6" ry="9.5" fill="#F7F4EB"/>
<ellipse cx="88.5" cy="62.5" rx="3.5" ry="5.5" fill="#1D1D1D"/>
<ellipse cx="75.789" cy="84.1059" rx="5.83807" ry="7.00568" transform="rotate(6.78542 75.789 84.1059)" fill="#1D1D1D"/>
<path d="M66.5461 86.9675C66.8978 89.5005 68.4407 93.7277 73.0912 94.6916" stroke="#1D1D1D" stroke-width="2.4" stroke-linecap="round"/>
</svg>
