<svg width="61" height="61" viewBox="0 0 61 61" fill="none" xmlns="http://www.w3.org/2000/svg">
<path d="M32.0923 6.34703C33.0491 5.21007 34.8678 5.47664 35.458 6.84036L38.1685 13.1025C38.5358 13.9513 39.4373 14.4375 40.3484 14.2782L47.07 13.1029C48.5337 12.8469 49.7556 14.2201 49.3311 15.6442L47.3822 22.1835C47.1181 23.0699 47.4961 24.0218 48.2964 24.4854L54.2009 27.9056C55.4868 28.6505 55.54 30.4878 54.2995 31.3059L48.6032 35.0625C47.8311 35.5717 47.5088 36.5439 47.8239 37.4135L50.1485 43.8289C50.6548 45.226 49.5146 46.6677 48.0385 46.497L41.2601 45.7132C40.3413 45.607 39.4695 46.1446 39.1519 47.0133L36.809 53.422C36.2987 54.8176 34.4986 55.1891 33.4775 54.1095L28.7888 49.1521C28.1532 48.4801 27.1398 48.3316 26.3382 48.7929L20.424 52.1962C19.136 52.9373 17.5182 52.0648 17.43 50.5815L17.0248 43.77C16.9698 42.8467 16.289 42.0815 15.3784 41.9196L8.66021 40.7251C7.19718 40.465 6.51871 38.7567 7.4046 37.5637L11.4725 32.0853C12.0239 31.3427 11.9942 30.3189 11.4007 29.6096L7.02214 24.3761C6.0686 23.2365 6.64692 21.4917 8.09241 21.1472L14.7301 19.5654C15.6298 19.351 16.2651 18.5476 16.2664 17.6227L16.2762 10.7992C16.2783 9.31321 17.8428 8.34841 19.1716 9.01367L25.2731 12.0685C26.1002 12.4826 27.1032 12.2756 27.6987 11.5679L32.0923 6.34703Z" fill="#F7F4EB"/>
<path d="M21.6427 40.7153H24.4572C24.8455 40.7153 25.1603 40.4005 25.1603 40.0122V27.7101C25.1603 27.3218 24.8455 27.0071 24.4572 27.0071H21.6427C21.2544 27.0071 20.9397 27.3218 20.9397 27.7101V40.0122C20.9397 40.4005 21.2544 40.7153 21.6427 40.7153Z" fill="#202020"/>
<path d="M21.6427 24.845H24.4572C24.8455 24.845 25.1603 24.5303 25.1603 24.142V21.6427C25.1603 21.2544 24.8455 20.9397 24.4572 20.9397H21.6427C21.2544 20.9397 20.9397 21.2544 20.9397 21.6427V24.142C20.9397 24.5303 21.2544 24.845 21.6427 24.845Z" fill="#202020"/>
<path d="M41.5305 28.4351C41.135 27.9145 40.5518 27.4864 39.7807 27.1508C39.0096 26.8155 38.1585 26.6477 37.2272 26.6477C35.3368 26.6477 33.7349 27.3692 32.4216 28.8124C32.1603 29.0996 31.9703 29.0368 31.9703 28.6485V27.7113C31.9703 27.3229 31.6555 27.0082 31.2672 27.0082H28.7531C28.3647 27.0082 28.05 27.3229 28.05 27.7113V40.0134C28.05 40.4017 28.3648 40.7165 28.7531 40.7165H31.5676C31.9559 40.7165 32.2706 40.4017 32.2706 40.0134V35.735C32.2706 33.9527 32.3782 32.731 32.5935 32.0701C32.8087 31.4093 33.2068 30.8786 33.7876 30.4781C34.3684 30.0775 35.0242 29.8771 35.7553 29.8771C36.326 29.8771 36.8142 30.0173 37.2198 30.2978C37.6254 30.5782 37.9183 30.9711 38.0985 31.4769C38.2789 31.9826 38.3689 33.0965 38.3689 34.8189V40.0134C38.3689 40.4016 38.6836 40.7164 39.0719 40.7164H41.8864C42.2747 40.7164 42.5894 40.4016 42.5894 40.0134V33.0464C42.5894 31.8149 42.5118 30.8685 42.3567 30.2077C42.2017 29.5468 41.9262 28.956 41.5305 28.4351Z" fill="#202020"/>
</svg>
