<svg width="60" height="41" viewBox="0 0 60 41" fill="none" xmlns="http://www.w3.org/2000/svg">
<path d="M33.0309 20.5753C36.8455 15.8533 41.9695 9.42439 42.0265 0.0371094H56.3738C57.4555 10.3916 47.6629 19.3806 47.6629 19.3806C47.6629 19.3806 54.9504 30.4178 59.7328 39.805H42.5389C42.5389 39.805 40.2615 30.6453 37.0732 27.118C37.1302 32.2383 37.1871 34.7416 37.4718 39.805H22.3274C23.0106 26.4922 23.0675 13.2362 22.3274 0.0371094H37.6426C37.6426 3.67824 38.8951 8.51411 36.7316 14.0327C35.9915 15.9101 33.0309 20.2909 33.0309 20.5753Z" fill="#1D1D1D"/>
<path d="M1.54698 23.5338C1.54698 23.5338 -4.94347 40.9998 8.66369 40.9998C16.7483 41.0567 20.1643 27.5163 22.2708 18.8686C22.7833 24.5579 19.3672 33.6607 19.8796 39.862H33.9423C33.2591 26.606 33.2591 13.2362 33.9423 0.0371532C33.9423 0.0371532 19.8796 -0.0766305 14.5848 0.0940485C8.09435 0.321619 -0.331834 3.10935 1.31924 14.2603C2.79952 24.3303 11.7381 24.1596 16.6913 22.0546C15.4388 23.2493 13.8447 24.3872 11.795 25.1268C7.41115 26.7198 2.57178 25.9802 1.54698 23.5338ZM18.7979 15.455C18.741 15.5119 17.4884 15.5688 16.5775 15.455C15.7804 15.2844 14.9264 14.3741 14.9264 12.9518V12.838C14.9264 11.4157 15.7804 10.5054 16.5775 10.3916C17.4884 10.2209 18.741 10.3347 18.7979 10.3916V15.455Z" fill="#1D1D1D"/>
</svg>
