<svg width="73" height="73" viewBox="0 0 73 73" fill="none" xmlns="http://www.w3.org/2000/svg">
<path d="M36.5774 0.367814C40.0823 0.0732806 43.7337 8.11446 45.6108 19.3691C52.8907 12.5392 59.5045 8.98664 61.966 11.0661C64.6519 13.3358 61.5499 21.6006 54.9221 30.8835C64.8965 31.2023 72.0824 33.367 72.3525 36.5774C72.6468 40.0818 64.6077 43.7326 53.3551 45.6098C60.1844 52.8892 63.7368 59.5023 61.6581 61.964C59.3883 64.6507 51.1207 61.5482 41.8358 54.9181C41.5174 64.894 39.3544 72.0817 36.1439 72.3524C32.6397 72.6472 28.9869 64.6099 27.1094 53.3589C19.8314 60.1859 13.221 63.7371 10.7601 61.6581C8.07375 59.3878 11.1762 51.1192 17.807 41.8339C7.82848 41.516 0.638284 39.3521 0.367878 36.1409C0.0731108 32.6365 8.11204 28.9848 19.3643 27.1075C12.5369 19.8292 8.98608 13.2172 11.0652 10.7562C13.3347 8.06998 21.6002 11.1719 30.8836 17.8001C31.2022 7.82483 33.3668 0.637863 36.5774 0.367814Z" fill="#1D1D1D"/>
<path d="M38.6957 36.5312C40.2774 34.5733 42.402 31.9077 42.4256 28.0154H48.3745C48.823 32.3087 44.7627 36.0358 44.7627 36.0358C44.7627 36.0358 47.7843 40.6122 49.7673 44.5045H42.6381C42.6381 44.5045 41.6938 40.7066 40.3718 39.244C40.3954 41.3671 40.419 42.405 40.5371 44.5045H34.2577C34.541 38.9846 34.5646 33.4882 34.2577 28.0154H40.6079C40.6079 29.5251 41.1272 31.5302 40.2302 33.8184C39.9233 34.5969 38.6957 36.4133 38.6957 36.5312Z" fill="#F7F4EB"/>
<path d="M25.6414 37.7579C25.6414 37.7579 22.9503 44.9999 28.5923 44.9999C31.9444 45.0235 33.3608 39.4092 34.2342 35.8236C34.4467 38.1825 33.0303 41.9569 33.2428 44.5281H39.0736C38.7903 39.0318 38.7903 33.4882 39.0736 28.0154C39.0736 28.0154 33.2428 27.9682 31.0473 28.039C28.3562 28.1334 24.8624 29.2892 25.547 33.9128C26.1608 38.0882 29.867 38.0174 31.9208 37.1446C31.4014 37.64 30.7405 38.1118 29.8906 38.4184C28.0729 39.0789 26.0663 38.7723 25.6414 37.7579ZM32.7942 34.4082C32.7706 34.4318 32.2513 34.4554 31.8736 34.4082C31.5431 34.3374 31.189 33.96 31.189 33.3702V33.3231C31.189 32.7333 31.5431 32.3559 31.8736 32.3087C32.2513 32.2379 32.7706 32.2851 32.7942 32.3087V34.4082Z" fill="#F7F4EB"/>
</svg>
