<svg width="3286" height="112" viewBox="0 0 3286 112" fill="none" xmlns="http://www.w3.org/2000/svg">
<path d="M1741.35 46C1743.05 46 1743.95 47 1743.95 48.9C1743.95 51.8 1741.85 56.9 1737.25 63.6L1718.05 92H1716.05L1713.05 56.8L1689.85 92H1688.15L1685.75 54.3C1685.65 52.6 1685.45 50.2 1683.75 50.2C1682.35 50.2 1679.95 51.1 1677.35 53.2L1676.15 51.6C1679.35 48.9 1683.35 46 1686.95 46C1690.65 46 1690.65 49.8 1690.95 56.1L1692.25 84.1L1715.45 47H1717.25L1720.15 84.8C1732.75 64.1 1738.25 55.9 1738.25 49.1C1738.25 48.4 1738.15 47.6 1738.05 46.9C1739.15 46.3 1740.45 46 1741.35 46ZM1746.05 91.2L1758.45 27C1759.15 23.6 1757.65 23.9 1751.35 23.6L1751.45 21.6L1763.95 20L1764.75 20.8L1754.95 70.5C1761.95 58 1773.55 46.1 1781.85 46.1C1786.85 46.1 1787.65 50.4 1786.45 55.8L1779.95 86.1C1779.45 88.4 1780.55 88.8 1781.35 88.8C1782.75 88.8 1784.95 87.6 1787.15 85.9L1788.45 87.4C1784.35 91 1780.75 93 1778.05 93C1774.65 93 1774.35 89.6 1775.25 85.2L1781.05 58C1781.95 53.8 1782.25 50.2 1779.05 50.2C1774.45 50.2 1764.85 58 1753.75 76.7L1750.85 91.5L1746.95 92.3L1746.05 91.2ZM1837.67 87.2C1834.17 90.4 1830.37 93 1827.27 93C1823.17 93 1823.77 88.3 1824.77 83.4C1825.27 81.1 1825.77 78.8 1826.17 76.5C1821.27 85.5 1815.07 93 1807.67 93C1801.27 93 1798.07 87.2 1798.07 79.4C1798.07 63.7 1809.97 46 1824.37 46C1827.27 46 1830.37 46.6 1833.37 47.9L1837.47 46.4L1829.47 84.7C1828.97 87.4 1829.37 88.6 1830.87 88.6C1832.27 88.6 1834.27 87.4 1836.47 85.6L1837.67 87.2ZM1803.37 77.2C1803.37 82.3 1804.77 89.1 1809.47 89.1C1816.37 89.1 1825.47 73.8 1827.97 68.3L1831.57 51.1C1828.97 49.4 1826.07 48.7 1823.87 48.7C1813.27 48.7 1803.37 64 1803.37 77.2ZM1866.69 86.6C1862.19 89.9 1856.69 93 1853.59 93C1849.89 93 1849.39 90.4 1850.79 82.7L1856.59 50.9H1849.39L1849.79 48.7C1856.79 47.5 1859.89 42.9 1862.49 35.8H1864.79L1862.09 48L1874.89 47.4L1874.29 50.9H1861.49L1855.69 82.7C1854.89 87.2 1855.09 88.6 1856.59 88.6C1858.69 88.6 1862.29 86.9 1865.59 84.8L1866.69 86.6ZM1925.48 83.3C1920.98 88.7 1914.98 93 1907.88 93C1899.58 93 1894.38 87.3 1894.38 76.4C1894.38 61.5 1905.38 46 1919.18 46C1923.28 46 1926.88 47.3 1929.68 49.3L1925.18 61.8H1923.58L1923.78 50.3C1921.58 49 1919.28 48.7 1917.38 48.7C1907.58 48.7 1899.68 64 1899.68 75.6C1899.68 84.7 1903.38 88.9 1909.98 88.9C1916.28 88.9 1921.08 85.3 1924.18 81.8L1925.48 83.3ZM1975.17 87.2C1971.67 90.4 1967.87 93 1964.77 93C1960.67 93 1961.27 88.3 1962.27 83.4C1962.77 81.1 1963.27 78.8 1963.67 76.5C1958.77 85.5 1952.57 93 1945.17 93C1938.77 93 1935.57 87.2 1935.57 79.4C1935.57 63.7 1947.47 46 1961.87 46C1964.77 46 1967.87 46.6 1970.87 47.9L1974.97 46.4L1966.97 84.7C1966.47 87.4 1966.87 88.6 1968.37 88.6C1969.77 88.6 1971.77 87.4 1973.97 85.6L1975.17 87.2ZM1940.87 77.2C1940.87 82.3 1942.27 89.1 1946.97 89.1C1953.87 89.1 1962.97 73.8 1965.47 68.3L1969.07 51.1C1966.47 49.4 1963.57 48.7 1961.37 48.7C1950.77 48.7 1940.87 64 1940.87 77.2ZM1986.79 51.7C1989.99 48.8 1993.99 46 1997.09 46C2000.29 46 2000.99 49.1 1999.89 54L1996.39 70.5C2003.39 57.9 2014.99 46.1 2023.19 46.1C2028.19 46.1 2028.89 50.4 2027.79 55.8L2021.39 86.1C2020.89 88.4 2021.99 88.8 2022.79 88.8C2024.19 88.8 2026.29 87.6 2028.59 85.9L2029.79 87.4C2025.69 91 2022.09 93 2019.39 93C2015.99 93 2015.69 89.6 2016.59 85.2L2022.39 58C2023.29 53.8 2023.59 50.2 2020.39 50.2C2015.79 50.2 2006.19 58 1995.09 76.7L1991.89 91.5L1987.99 92.3L1987.09 91.3L1995.19 52.9C1995.59 50.8 1995.09 50.2 1993.99 50.2C1992.39 50.2 1990.09 51.7 1987.99 53.2L1986.79 51.7ZM2077.65 34.7L2068.55 81.3C2067.95 84.2 2067.85 86.1 2068.25 87.3C2068.85 89.1 2071.05 89.5 2075.05 90L2074.65 92C2069.85 91.7 2068.45 91.6 2063.95 91.6C2059.35 91.6 2057.85 91.7 2052.95 92L2053.35 90C2057.55 89.5 2059.75 88.9 2061.25 87.1C2062.25 85.9 2062.65 84 2063.15 81.2L2072.25 34.8C2072.75 32 2072.95 30.1 2072.55 28.9C2071.95 26.9 2069.75 26.5 2065.75 26L2066.15 24C2070.95 24.3 2072.35 24.4 2076.95 24.4C2081.45 24.4 2082.95 24.3 2087.85 24L2087.45 26C2083.25 26.5 2080.95 26.9 2079.65 28.7C2078.65 30 2078.15 31.8 2077.65 34.7ZM2145.52 87.2C2141.82 90.4 2138.02 93 2134.62 93C2130.62 93 2131.42 88.3 2132.52 83.4C2133.12 80.8 2133.62 78.2 2134.12 75.6C2128.82 85 2121.52 93 2114.32 93C2107.32 93 2104.32 87 2104.32 79.1C2104.32 63.4 2115.92 46 2131.22 46C2133.92 46 2136.92 46.6 2139.72 47.7L2143.62 27.3C2144.32 23.7 2143.12 23.9 2136.42 23.6L2136.52 21.6L2149.02 20L2149.82 20.8L2137.02 85.7C2136.72 87.4 2136.82 88.6 2138.32 88.6C2139.82 88.6 2141.92 87.3 2144.22 85.6L2145.52 87.2ZM2109.62 77.9C2109.62 81.8 2110.82 89.1 2116.02 89.1C2123.32 89.1 2133.22 73.7 2135.72 68.2L2138.92 51.6C2136.32 49.7 2133.22 48.7 2130.62 48.7C2119.22 48.7 2109.62 63.5 2109.62 77.9ZM2170.11 93C2161.41 93 2155.81 86.9 2155.81 76.3C2155.81 60.8 2165.71 46 2179.71 46C2188.51 46 2194.11 52.1 2194.11 62.7C2194.11 77.8 2184.11 93 2170.11 93ZM2171.81 90.3C2182.81 90.3 2188.71 75.2 2188.71 63.5C2188.71 53.7 2184.41 48.7 2178.11 48.7C2167.01 48.7 2161.21 63.8 2161.21 75.5C2161.21 85.3 2165.41 90.3 2171.81 90.3ZM2206.33 43.5L2206.73 29.7C2211.93 27.4 2217.33 26 2223.63 26C2234.33 26 2240.13 30.3 2240.13 37.3C2240.13 53.2 2218.73 53.9 2211.53 75.8H2208.63L2208.83 75.1C2214.93 53.7 2234.63 51.4 2234.63 38.3C2234.63 33.1 2230.73 28.5 2222.53 28.5C2220.03 28.5 2216.63 28.9 2212.73 30.7L2207.93 43.5H2206.33ZM2206.63 93C2204.13 93 2202.43 91.5 2202.43 89.1C2202.43 86 2205.33 83.5 2208.53 83.5C2210.93 83.5 2212.53 85 2212.53 87.1C2212.53 90.6 2209.63 93 2206.63 93Z" fill="#1D1D1D"/>
<path d="M3242.33 77.5655H3234.23C3229.88 75.7655 3214.13 31.3655 3258.08 33.4655C3239.48 28.8155 3216.23 39.0155 3207.98 47.5655L3195.68 13.9655C3208.13 4.51549 3224.03 0.465495 3245.33 0.315488C3272.78 0.16549 3289.58 13.2155 3284.33 34.2155C3275.48 69.4655 3233.78 42.7655 3242.33 77.5655ZM3222.68 94.9655C3222.68 87.7655 3229.13 81.9155 3237.08 81.9155C3245.03 81.9155 3251.63 87.7655 3251.63 94.9655C3251.63 102.165 3245.03 108.015 3237.08 108.015C3229.13 108.015 3222.68 102.165 3222.68 94.9655Z" fill="black"/>
<path d="M2925.33 108.015C2927.13 72.9153 2927.13 37.9653 2925.33 3.16528H2965.23C2963.28 38.2653 2963.28 73.2153 2965.23 108.015H2925.33Z" fill="black"/>
<path d="M2874.62 15.6153C2882.42 26.1153 2886.92 40.3653 2886.92 55.2153C2886.92 70.0653 2882.42 84.3153 2874.62 94.8153C2866.82 105.315 2855.12 111.165 2839.82 111.165C2826.02 111.315 2812.37 105.315 2804.57 94.8153C2796.77 84.3153 2792.42 70.0653 2792.42 55.2153C2792.42 40.3653 2796.77 26.1153 2804.57 15.6153C2808.77 9.91526 2819.12 0.31526 2839.52 0.0152636C2858.87 -0.43474 2869.82 9.16526 2874.62 15.6153Z" fill="black"/>
<path d="M2735.43 3.0154C2746.68 2.8654 2787.63 -0.284603 2789.28 54.3154V56.4154C2789.43 86.8654 2772.03 108.015 2757.33 108.165C2757.18 108.165 2756.58 108.015 2756.43 108.015C2730.33 107.865 2724.48 75.0154 2722.38 69.6154C2724.93 81.0154 2727.63 92.5654 2734.68 108.015H2700.33C2700.33 105.315 2700.48 103.815 2700.63 100.965C2702.13 68.2654 2701.98 35.5654 2700.33 3.0154H2735.43Z" fill="black"/>
<path d="M2603.94 42.0153C2596.74 42.1653 2589.54 42.6153 2582.49 43.0653V3.16528H2662.89V43.0653C2655.54 42.6153 2648.34 42.1653 2641.14 42.0153C2640.84 64.0653 2641.29 86.1153 2642.64 108.015H2602.59C2603.79 85.9653 2604.24 63.9153 2603.94 42.0153Z" fill="black"/>
<path d="M2570.32 3.16528C2575.87 38.2653 2583.22 73.2153 2592.52 108.165H2552.62C2552.02 101.265 2551.27 94.6653 2550.52 88.3653C2546.02 88.3653 2541.37 88.3653 2536.87 88.3653C2536.12 94.6653 2535.37 101.265 2534.77 108.015H2494.87C2504.02 73.2153 2511.52 38.2653 2517.07 3.16528H2570.32Z" fill="black"/>
<path d="M2439.17 61.3653C2439.32 76.9653 2439.77 92.5653 2440.67 108.015H2400.77C2402.57 72.9153 2402.57 37.9653 2400.77 3.16528H2440.67C2439.77 18.6153 2439.32 34.2153 2439.17 49.6653C2443.82 49.6653 2448.32 49.6653 2452.97 49.6653C2452.82 34.0653 2452.37 18.6153 2451.47 3.16528H2491.52C2489.42 38.2653 2489.42 73.2153 2491.52 108.015H2451.47C2452.37 92.5653 2452.82 76.9653 2452.97 61.5153C2448.32 61.3653 2443.82 61.3653 2439.17 61.3653Z" fill="black"/>
<path d="M2318.55 60.4653C2322.75 41.5653 2326.05 22.5153 2328 3.16528H2342.1C2344.05 22.5153 2347.35 41.5653 2351.7 60.4653C2353.8 41.4153 2355.3 22.3653 2356.2 3.16528H2396.25C2390.7 37.9653 2386.95 72.9153 2385.15 108.015H2345.1C2342.7 84.9153 2340.6 71.1153 2335.05 50.1153C2329.5 71.1153 2327.4 84.9153 2325 108.015H2285.1C2283.3 72.9153 2279.55 37.9653 2274 3.16528H2313.9C2314.8 22.3653 2316.3 41.4153 2318.55 60.4653Z" fill="black"/>
<path d="M2840.38 36.2191C2842.33 36.0556 2844.35 40.5153 2845.4 46.757C2849.43 42.9695 2853.1 40.999 2854.46 42.152C2855.95 43.4105 2854.23 47.9937 2850.56 53.1418C2856.09 53.3186 2860.08 54.5196 2860.23 56.3C2860.39 58.2437 2855.93 60.2683 2849.69 61.3094C2853.48 65.3465 2855.45 69.0139 2854.29 70.3792C2853.04 71.8692 2848.45 70.1483 2843.3 66.4714C2843.13 72.0043 2841.93 75.9908 2840.14 76.1406C2838.2 76.3041 2836.18 71.8465 2835.13 65.6066C2831.1 69.3928 2827.43 71.3627 2826.07 70.2097C2824.58 68.9506 2826.3 64.3647 2829.98 59.215C2824.44 59.0388 2820.45 57.8387 2820.3 56.0577C2820.14 54.1144 2824.6 52.0895 2830.84 51.0484C2827.05 47.0121 2825.08 43.3453 2826.24 41.9805C2827.5 40.4908 2832.08 42.2113 2837.23 45.8873C2837.4 40.3553 2838.6 36.3692 2840.38 36.2191Z" fill="#F7F4EB"/>
<path d="M3180.39 15.6306C3188.19 26.1306 3192.69 40.3806 3192.69 55.2306C3192.69 70.0806 3188.19 84.3306 3180.39 94.8306C3172.59 105.331 3160.89 111.181 3145.59 111.181C3131.79 111.331 3118.14 105.331 3110.34 94.8306C3102.54 84.3306 3098.19 70.0806 3098.19 55.2306C3098.19 40.3806 3102.54 26.1306 3110.34 15.6306C3114.54 9.93064 3124.89 0.330641 3145.29 0.0306445C3164.64 -0.419359 3175.59 9.18064 3180.39 15.6306Z" fill="black"/>
<path d="M3041.2 3.03078C3052.45 2.88078 3093.4 -0.269222 3095.05 54.3308V56.4308C3095.2 86.8808 3077.8 108.031 3063.1 108.181C3062.95 108.181 3062.35 108.031 3062.2 108.031C3036.1 107.881 3030.25 75.0308 3028.15 69.6308C3030.7 81.0308 3033.4 92.5808 3040.45 108.031H3006.1C3006.1 105.331 3006.25 103.831 3006.4 100.981C3007.9 68.2808 3007.75 35.5808 3006.1 3.03078H3041.2Z" fill="black"/>
<path d="M3146.16 36.235C3148.1 36.0718 3150.12 40.5308 3151.17 46.7718C3155.2 42.9842 3158.87 41.0146 3160.24 42.1678C3161.73 43.4268 3160 48.0097 3156.33 53.1577C3161.86 53.3344 3165.85 54.5354 3166 56.3159C3166.16 58.2594 3161.7 60.2832 3155.46 61.3242C3159.25 65.3617 3161.22 69.0299 3160.06 70.3951C3158.81 71.8847 3154.22 70.1633 3149.07 66.4863C3148.9 72.019 3147.7 76.0061 3145.92 76.1564C3143.97 76.3199 3141.95 71.8621 3140.91 65.6225C3136.87 69.4083 3133.2 71.378 3131.84 70.2256C3130.35 68.9667 3132.07 64.3805 3135.75 59.2308C3130.21 59.0546 3126.22 57.8545 3126.08 56.0736C3125.91 54.1301 3130.37 52.1044 3136.61 51.0633C3132.82 47.0274 3130.85 43.3615 3132.01 41.9964C3133.27 40.5066 3137.85 42.2264 3143 45.9022C3143.17 40.3702 3144.38 36.3847 3146.16 36.235Z" fill="#F7F4EB"/>
<path d="M2543.28 71.6596C2541.54 71.4922 2540.33 70.2969 2539.48 68.3301C2536.82 65.7553 2533.7 60.8275 2531.2 54.9037C2527.27 45.6151 2526.35 37.3992 2529.15 36.5538C2531.25 35.9164 2534.87 39.658 2538.21 45.5239C2539.05 39.5591 2540.82 35.5775 2542.9 35.7911C2544.78 35.9864 2546.44 39.5913 2547.38 44.8499C2550.38 38.3247 2553.87 34.2483 2555.98 35.2371C2558.62 36.4792 2558.08 45.2099 2554.78 54.7376C2552.55 61.1881 2549.62 66.3501 2547.14 68.6277C2546.43 70.5328 2545.24 71.6145 2543.28 71.6596Z" fill="#F7F4EB"/>
<path d="M2742.37 27.27C2745.32 26.5774 2750.51 34.0206 2753.97 43.8955C2757.43 53.7709 2757.84 62.3388 2754.89 63.032C2751.95 63.7246 2746.75 56.2813 2743.29 46.4064C2739.84 36.531 2739.42 27.9632 2742.37 27.27Z" fill="#F7F4EB"/>
<path d="M3052.37 27.2696C3055.32 26.5765 3060.51 34.0208 3063.97 43.8962C3067.42 53.771 3067.84 62.3379 3064.89 63.0317C3061.95 63.7248 3056.75 56.2814 3053.29 46.406C3049.84 36.5306 3049.42 27.9628 3052.37 27.2696Z" fill="#F7F4EB"/>
<path d="M99.3477 46C101.048 46 101.948 47 101.948 48.9C101.948 51.8 99.8477 56.9 95.2477 63.6L76.0477 92H74.0477L71.0477 56.8L47.8477 92H46.1477L43.7477 54.3C43.6477 52.6 43.4477 50.2 41.7477 50.2C40.3477 50.2 37.9477 51.1 35.3477 53.2L34.1477 51.6C37.3477 48.9 41.3477 46 44.9477 46C48.6477 46 48.6477 49.8 48.9477 56.1L50.2477 84.1L73.4477 47H75.2477L78.1477 84.8C90.7477 64.1 96.2477 55.9 96.2477 49.1C96.2477 48.4 96.1477 47.6 96.0477 46.9C97.1477 46.3 98.4477 46 99.3477 46ZM104.049 91.2L116.449 27C117.149 23.6 115.649 23.9 109.349 23.6L109.449 21.6L121.949 20L122.749 20.8L112.949 70.5C119.949 58 131.549 46.1 139.849 46.1C144.849 46.1 145.649 50.4 144.449 55.8L137.949 86.1C137.449 88.4 138.549 88.8 139.349 88.8C140.749 88.8 142.949 87.6 145.149 85.9L146.449 87.4C142.349 91 138.749 93 136.049 93C132.649 93 132.349 89.6 133.249 85.2L139.049 58C139.949 53.8 140.249 50.2 137.049 50.2C132.449 50.2 122.849 58 111.749 76.7L108.849 91.5L104.949 92.3L104.049 91.2ZM195.672 87.2C192.172 90.4 188.372 93 185.272 93C181.172 93 181.772 88.3 182.772 83.4C183.272 81.1 183.772 78.8 184.172 76.5C179.272 85.5 173.072 93 165.672 93C159.272 93 156.072 87.2 156.072 79.4C156.072 63.7 167.972 46 182.372 46C185.272 46 188.372 46.6 191.372 47.9L195.472 46.4L187.472 84.7C186.972 87.4 187.372 88.6 188.872 88.6C190.272 88.6 192.272 87.4 194.472 85.6L195.672 87.2ZM161.372 77.2C161.372 82.3 162.772 89.1 167.472 89.1C174.372 89.1 183.472 73.8 185.972 68.3L189.572 51.1C186.972 49.4 184.072 48.7 181.872 48.7C171.272 48.7 161.372 64 161.372 77.2ZM224.693 86.6C220.193 89.9 214.693 93 211.593 93C207.893 93 207.393 90.4 208.793 82.7L214.593 50.9H207.393L207.793 48.7C214.793 47.5 217.893 42.9 220.493 35.8H222.793L220.093 48L232.893 47.4L232.293 50.9H219.493L213.693 82.7C212.893 87.2 213.093 88.6 214.593 88.6C216.693 88.6 220.293 86.9 223.593 84.8L224.693 86.6ZM283.477 83.3C278.977 88.7 272.977 93 265.877 93C257.577 93 252.377 87.3 252.377 76.4C252.377 61.5 263.377 46 277.177 46C281.277 46 284.877 47.3 287.677 49.3L283.177 61.8H281.577L281.777 50.3C279.577 49 277.277 48.7 275.377 48.7C265.577 48.7 257.677 64 257.677 75.6C257.677 84.7 261.377 88.9 267.977 88.9C274.277 88.9 279.077 85.3 282.177 81.8L283.477 83.3ZM333.172 87.2C329.672 90.4 325.872 93 322.772 93C318.672 93 319.272 88.3 320.272 83.4C320.772 81.1 321.272 78.8 321.672 76.5C316.772 85.5 310.572 93 303.172 93C296.772 93 293.572 87.2 293.572 79.4C293.572 63.7 305.472 46 319.872 46C322.772 46 325.872 46.6 328.872 47.9L332.972 46.4L324.972 84.7C324.472 87.4 324.872 88.6 326.372 88.6C327.772 88.6 329.772 87.4 331.972 85.6L333.172 87.2ZM298.872 77.2C298.872 82.3 300.272 89.1 304.972 89.1C311.872 89.1 320.972 73.8 323.472 68.3L327.072 51.1C324.472 49.4 321.572 48.7 319.372 48.7C308.772 48.7 298.872 64 298.872 77.2ZM344.793 51.7C347.993 48.8 351.993 46 355.093 46C358.293 46 358.993 49.1 357.893 54L354.393 70.5C361.393 57.9 372.993 46.1 381.193 46.1C386.193 46.1 386.893 50.4 385.793 55.8L379.393 86.1C378.893 88.4 379.993 88.8 380.793 88.8C382.193 88.8 384.293 87.6 386.593 85.9L387.793 87.4C383.693 91 380.093 93 377.393 93C373.993 93 373.693 89.6 374.593 85.2L380.393 58C381.293 53.8 381.593 50.2 378.393 50.2C373.793 50.2 364.193 58 353.093 76.7L349.893 91.5L345.993 92.3L345.093 91.3L353.193 52.9C353.593 50.8 353.093 50.2 351.993 50.2C350.393 50.2 348.093 51.7 345.993 53.2L344.793 51.7ZM435.649 34.7L426.549 81.3C425.949 84.2 425.849 86.1 426.249 87.3C426.849 89.1 429.049 89.5 433.049 90L432.649 92C427.849 91.7 426.449 91.6 421.949 91.6C417.349 91.6 415.849 91.7 410.949 92L411.349 90C415.549 89.5 417.749 88.9 419.249 87.1C420.249 85.9 420.649 84 421.149 81.2L430.249 34.8C430.749 32 430.949 30.1 430.549 28.9C429.949 26.9 427.749 26.5 423.749 26L424.149 24C428.949 24.3 430.349 24.4 434.949 24.4C439.449 24.4 440.949 24.3 445.849 24L445.449 26C441.249 26.5 438.949 26.9 437.649 28.7C436.649 30 436.149 31.8 435.649 34.7ZM503.522 87.2C499.822 90.4 496.022 93 492.622 93C488.622 93 489.422 88.3 490.522 83.4C491.122 80.8 491.622 78.2 492.122 75.6C486.822 85 479.522 93 472.322 93C465.322 93 462.322 87 462.322 79.1C462.322 63.4 473.922 46 489.222 46C491.922 46 494.922 46.6 497.722 47.7L501.622 27.3C502.322 23.7 501.122 23.9 494.422 23.6L494.522 21.6L507.022 20L507.822 20.8L495.022 85.7C494.722 87.4 494.822 88.6 496.322 88.6C497.822 88.6 499.922 87.3 502.222 85.6L503.522 87.2ZM467.622 77.9C467.622 81.8 468.822 89.1 474.022 89.1C481.322 89.1 491.222 73.7 493.722 68.2L496.922 51.6C494.322 49.7 491.222 48.7 488.622 48.7C477.222 48.7 467.622 63.5 467.622 77.9ZM528.108 93C519.408 93 513.808 86.9 513.808 76.3C513.808 60.8 523.708 46 537.708 46C546.508 46 552.108 52.1 552.108 62.7C552.108 77.8 542.108 93 528.108 93ZM529.808 90.3C540.808 90.3 546.708 75.2 546.708 63.5C546.708 53.7 542.408 48.7 536.108 48.7C525.008 48.7 519.208 63.8 519.208 75.5C519.208 85.3 523.408 90.3 529.808 90.3ZM564.334 43.5L564.734 29.7C569.934 27.4 575.334 26 581.634 26C592.334 26 598.134 30.3 598.134 37.3C598.134 53.2 576.734 53.9 569.534 75.8H566.634L566.834 75.1C572.934 53.7 592.634 51.4 592.634 38.3C592.634 33.1 588.734 28.5 580.534 28.5C578.034 28.5 574.634 28.9 570.734 30.7L565.934 43.5H564.334ZM564.634 93C562.134 93 560.434 91.5 560.434 89.1C560.434 86 563.334 83.5 566.534 83.5C568.934 83.5 570.534 85 570.534 87.1C570.534 90.6 567.634 93 564.634 93Z" fill="#1D1D1D"/>
<path d="M1600.33 77.5655H1592.23C1587.88 75.7655 1572.13 31.3655 1616.08 33.4655C1597.48 28.8155 1574.23 39.0155 1565.98 47.5655L1553.68 13.9655C1566.13 4.51549 1582.03 0.465495 1603.33 0.315488C1630.78 0.16549 1647.58 13.2155 1642.33 34.2155C1633.48 69.4655 1591.78 42.7655 1600.33 77.5655ZM1580.68 94.9655C1580.68 87.7655 1587.13 81.9155 1595.08 81.9155C1603.03 81.9155 1609.63 87.7655 1609.63 94.9655C1609.63 102.165 1603.03 108.015 1595.08 108.015C1587.13 108.015 1580.68 102.165 1580.68 94.9655Z" fill="black"/>
<path d="M1283.33 108.015C1285.13 72.9153 1285.13 37.9653 1283.33 3.16528H1323.23C1321.28 38.2653 1321.28 73.2153 1323.23 108.015H1283.33Z" fill="black"/>
<path d="M1232.62 15.6153C1240.42 26.1153 1244.92 40.3653 1244.92 55.2153C1244.92 70.0653 1240.42 84.3153 1232.62 94.8153C1224.82 105.315 1213.12 111.165 1197.82 111.165C1184.02 111.315 1170.37 105.315 1162.57 94.8153C1154.77 84.3153 1150.42 70.0653 1150.42 55.2153C1150.42 40.3653 1154.77 26.1153 1162.57 15.6153C1166.77 9.91526 1177.12 0.31526 1197.52 0.0152636C1216.87 -0.43474 1227.82 9.16526 1232.62 15.6153Z" fill="black"/>
<path d="M1093.43 3.0154C1104.68 2.8654 1145.63 -0.284603 1147.28 54.3154V56.4154C1147.43 86.8654 1130.03 108.015 1115.33 108.165C1115.18 108.165 1114.58 108.015 1114.43 108.015C1088.33 107.865 1082.48 75.0154 1080.38 69.6154C1082.93 81.0154 1085.63 92.5654 1092.68 108.015H1058.33C1058.33 105.315 1058.48 103.815 1058.63 100.965C1060.13 68.2654 1059.98 35.5654 1058.33 3.0154H1093.43Z" fill="black"/>
<path d="M961.939 42.0153C954.739 42.1653 947.539 42.6153 940.489 43.0653V3.16528H1020.89V43.0653C1013.54 42.6153 1006.34 42.1653 999.139 42.0153C998.839 64.0653 999.289 86.1153 1000.64 108.015H960.589C961.789 85.9653 962.239 63.9153 961.939 42.0153Z" fill="black"/>
<path d="M928.321 3.16528C933.871 38.2653 941.221 73.2153 950.521 108.165H910.621C910.021 101.265 909.271 94.6653 908.521 88.3653C904.021 88.3653 899.371 88.3653 894.871 88.3653C894.121 94.6653 893.371 101.265 892.771 108.015H852.871C862.021 73.2153 869.521 38.2653 875.071 3.16528H928.321Z" fill="black"/>
<path d="M797.169 61.3653C797.319 76.9653 797.769 92.5653 798.669 108.015H758.769C760.569 72.9153 760.569 37.9653 758.769 3.16528H798.669C797.769 18.6153 797.319 34.2153 797.169 49.6653C801.819 49.6653 806.319 49.6653 810.969 49.6653C810.819 34.0653 810.369 18.6153 809.469 3.16528H849.519C847.419 38.2653 847.419 73.2153 849.519 108.015H809.469C810.369 92.5653 810.819 76.9653 810.969 61.5153C806.319 61.3653 801.819 61.3653 797.169 61.3653Z" fill="black"/>
<path d="M676.55 60.4653C680.75 41.5653 684.05 22.5153 686 3.16528H700.1C702.05 22.5153 705.35 41.5653 709.7 60.4653C711.8 41.4153 713.3 22.3653 714.2 3.16528H754.25C748.7 37.9653 744.95 72.9153 743.15 108.015H703.1C700.7 84.9153 698.6 71.1153 693.05 50.1153C687.5 71.1153 685.4 84.9153 683 108.015H643.1C641.3 72.9153 637.55 37.9653 632 3.16528H671.9C672.8 22.3653 674.3 41.4153 676.55 60.4653Z" fill="black"/>
<path d="M1198.39 36.2196C1200.33 36.0564 1202.35 40.5154 1203.39 46.7565C1207.43 42.9688 1211.1 40.9992 1212.47 42.1524C1213.95 43.4114 1212.23 47.9943 1208.56 53.1423C1214.09 53.319 1218.08 54.52 1218.23 56.3005C1218.39 58.244 1213.93 60.2678 1207.69 61.3088C1211.48 65.3463 1213.45 69.0145 1212.29 70.3797C1211.03 71.8693 1206.45 70.1479 1201.3 66.4709C1201.12 72.0037 1199.93 75.9907 1198.14 76.1411C1196.2 76.3045 1194.18 71.8467 1193.13 65.6071C1189.1 69.393 1185.43 71.3626 1184.07 70.2102C1182.58 68.9513 1184.3 64.3651 1187.98 59.2155C1182.44 59.0392 1178.45 57.8391 1178.3 56.0582C1178.14 54.1147 1182.6 52.089 1188.84 51.0479C1185.05 47.0121 1183.08 43.3461 1184.24 41.981C1185.49 40.4912 1190.08 42.2111 1195.23 45.8868C1195.4 40.3548 1196.6 36.3694 1198.39 36.2196Z" fill="#F7F4EB"/>
<path d="M1538.39 15.6306C1546.19 26.1306 1550.69 40.3806 1550.69 55.2306C1550.69 70.0806 1546.19 84.3306 1538.39 94.8306C1530.59 105.331 1518.89 111.181 1503.59 111.181C1489.79 111.331 1476.14 105.331 1468.34 94.8306C1460.54 84.3306 1456.19 70.0806 1456.19 55.2306C1456.19 40.3806 1460.54 26.1306 1468.34 15.6306C1472.54 9.93064 1482.89 0.330641 1503.29 0.0306445C1522.64 -0.419359 1533.59 9.18064 1538.39 15.6306Z" fill="black"/>
<path d="M1399.2 3.03078C1410.45 2.88078 1451.4 -0.269222 1453.05 54.3308V56.4308C1453.2 86.8808 1435.8 108.031 1421.1 108.181C1420.95 108.181 1420.35 108.031 1420.2 108.031C1394.1 107.881 1388.25 75.0308 1386.15 69.6308C1388.7 81.0308 1391.4 92.5808 1398.45 108.031H1364.1C1364.1 105.331 1364.25 103.831 1364.4 100.981C1365.9 68.2808 1365.75 35.5808 1364.1 3.03078H1399.2Z" fill="black"/>
<path d="M1504.16 36.2345C1506.1 36.071 1508.12 40.5308 1509.17 46.7724C1513.2 42.985 1516.87 41.0147 1518.24 42.1674C1519.73 43.4259 1518 48.0098 1514.33 53.1582C1519.86 53.3349 1523.85 54.5351 1524 56.3154C1524.16 58.259 1519.7 60.2836 1513.46 61.3247C1517.25 65.3618 1519.22 69.0293 1518.06 70.3946C1516.81 71.8846 1512.22 70.1637 1507.07 66.4868C1506.9 72.0198 1505.7 76.0062 1503.91 76.156C1501.97 76.3193 1499.95 71.8618 1498.9 65.622C1494.87 69.4081 1491.2 71.3781 1489.84 70.2251C1488.35 68.9659 1490.07 64.3799 1493.75 59.2304C1488.21 59.0542 1484.22 57.8548 1484.07 56.0741C1483.91 54.1306 1488.37 52.1049 1494.61 51.0638C1490.82 47.0275 1488.85 43.3607 1490.01 41.9959C1491.27 40.5062 1495.85 42.2268 1501 45.9027C1501.17 40.3708 1502.37 36.3847 1504.16 36.2345Z" fill="#F7F4EB"/>
<path d="M901.275 71.6603C899.54 71.4926 898.325 70.2966 897.481 68.3299C894.824 65.7552 891.7 60.8274 889.197 54.9035C885.272 45.6149 884.355 37.399 887.147 36.5536C889.255 35.9167 892.872 39.6576 896.207 45.5226C897.045 39.5586 898.824 35.5779 900.896 35.7919C902.777 35.9872 904.437 39.5915 905.381 44.8497C908.382 38.3242 911.87 34.2483 913.977 35.2379C916.617 36.4801 916.083 45.2099 912.784 54.7374C910.55 61.1888 907.619 66.3511 905.141 68.6281C904.427 70.5326 903.243 71.6151 901.275 71.6603Z" fill="#F7F4EB"/>
<path d="M1100.37 27.2696C1103.32 26.5765 1108.51 34.0208 1111.97 43.8962C1115.43 53.771 1115.84 62.3379 1112.89 63.0317C1109.95 63.7248 1104.75 56.2814 1101.29 46.406C1097.84 36.5306 1097.42 27.9628 1100.37 27.2696Z" fill="#F7F4EB"/>
<path d="M1410.37 27.27C1413.32 26.5775 1418.51 34.0206 1421.97 43.8955C1425.42 53.7709 1425.84 62.3388 1422.89 63.032C1419.94 63.7248 1414.75 56.2814 1411.29 46.4063C1407.83 36.5309 1407.42 27.9632 1410.37 27.27Z" fill="#F7F4EB"/>
</svg>
