<svg width="3908" height="117" viewBox="0 0 3908 117" fill="none" xmlns="http://www.w3.org/2000/svg">
<path d="M3380.35 38C3382.05 38 3382.95 39 3382.95 40.9C3382.95 43.8 3380.85 48.9 3376.25 55.6L3357.05 84H3355.05L3352.05 48.8L3328.85 84H3327.15L3324.75 46.3C3324.65 44.6 3324.45 42.2 3322.75 42.2C3321.35 42.2 3318.95 43.1 3316.35 45.2L3315.15 43.6C3318.35 40.9 3322.35 38 3325.95 38C3329.65 38 3329.65 41.8 3329.95 48.1L3331.25 76.1L3354.45 39H3356.25L3359.15 76.8C3371.75 56.1 3377.25 47.9 3377.25 41.1C3377.25 40.4 3377.15 39.6 3377.05 38.9C3378.15 38.3 3379.45 38 3380.35 38ZM3385.05 83.2L3397.45 19C3398.15 15.6 3396.65 15.9 3390.35 15.6L3390.45 13.6L3402.95 12L3403.75 12.8L3393.95 62.5C3400.95 50 3412.55 38.1 3420.85 38.1C3425.85 38.1 3426.65 42.4 3425.45 47.8L3418.95 78.1C3418.45 80.4 3419.55 80.8 3420.35 80.8C3421.75 80.8 3423.95 79.6 3426.15 77.9L3427.45 79.4C3423.35 83 3419.75 85 3417.05 85C3413.65 85 3413.35 81.6 3414.25 77.2L3420.05 50C3420.95 45.8 3421.25 42.2 3418.05 42.2C3413.45 42.2 3403.85 50 3392.75 68.7L3389.85 83.5L3385.95 84.3L3385.05 83.2ZM3476.67 79.2C3473.17 82.4 3469.37 85 3466.27 85C3462.17 85 3462.77 80.3 3463.77 75.4C3464.27 73.1 3464.77 70.8 3465.17 68.5C3460.27 77.5 3454.07 85 3446.67 85C3440.27 85 3437.07 79.2 3437.07 71.4C3437.07 55.7 3448.97 38 3463.37 38C3466.27 38 3469.37 38.6 3472.37 39.9L3476.47 38.4L3468.47 76.7C3467.97 79.4 3468.37 80.6 3469.87 80.6C3471.27 80.6 3473.27 79.4 3475.47 77.6L3476.67 79.2ZM3442.37 69.2C3442.37 74.3 3443.77 81.1 3448.47 81.1C3455.37 81.1 3464.47 65.8 3466.97 60.3L3470.57 43.1C3467.97 41.4 3465.07 40.7 3462.87 40.7C3452.27 40.7 3442.37 56 3442.37 69.2ZM3505.69 78.6C3501.19 81.9 3495.69 85 3492.59 85C3488.89 85 3488.39 82.4 3489.79 74.7L3495.59 42.9H3488.39L3488.79 40.7C3495.79 39.5 3498.89 34.9 3501.49 27.8H3503.79L3501.09 40L3513.89 39.4L3513.29 42.9H3500.49L3494.69 74.7C3493.89 79.2 3494.09 80.6 3495.59 80.6C3497.69 80.6 3501.29 78.9 3504.59 76.8L3505.69 78.6ZM3564.48 75.3C3559.98 80.7 3553.98 85 3546.88 85C3538.58 85 3533.38 79.3 3533.38 68.4C3533.38 53.5 3544.38 38 3558.18 38C3562.28 38 3565.88 39.3 3568.68 41.3L3564.18 53.8H3562.58L3562.78 42.3C3560.58 41 3558.28 40.7 3556.38 40.7C3546.58 40.7 3538.68 56 3538.68 67.6C3538.68 76.7 3542.38 80.9 3548.98 80.9C3555.28 80.9 3560.08 77.3 3563.18 73.8L3564.48 75.3ZM3614.17 79.2C3610.67 82.4 3606.87 85 3603.77 85C3599.67 85 3600.27 80.3 3601.27 75.4C3601.77 73.1 3602.27 70.8 3602.67 68.5C3597.77 77.5 3591.57 85 3584.17 85C3577.77 85 3574.57 79.2 3574.57 71.4C3574.57 55.7 3586.47 38 3600.87 38C3603.77 38 3606.87 38.6 3609.87 39.9L3613.97 38.4L3605.97 76.7C3605.47 79.4 3605.87 80.6 3607.37 80.6C3608.77 80.6 3610.77 79.4 3612.97 77.6L3614.17 79.2ZM3579.87 69.2C3579.87 74.3 3581.27 81.1 3585.97 81.1C3592.87 81.1 3601.97 65.8 3604.47 60.3L3608.07 43.1C3605.47 41.4 3602.57 40.7 3600.37 40.7C3589.77 40.7 3579.87 56 3579.87 69.2ZM3625.79 43.7C3628.99 40.8 3632.99 38 3636.09 38C3639.29 38 3639.99 41.1 3638.89 46L3635.39 62.5C3642.39 49.9 3653.99 38.1 3662.19 38.1C3667.19 38.1 3667.89 42.4 3666.79 47.8L3660.39 78.1C3659.89 80.4 3660.99 80.8 3661.79 80.8C3663.19 80.8 3665.29 79.6 3667.59 77.9L3668.79 79.4C3664.69 83 3661.09 85 3658.39 85C3654.99 85 3654.69 81.6 3655.59 77.2L3661.39 50C3662.29 45.8 3662.59 42.2 3659.39 42.2C3654.79 42.2 3645.19 50 3634.09 68.7L3630.89 83.5L3626.99 84.3L3626.09 83.3L3634.19 44.9C3634.59 42.8 3634.09 42.2 3632.99 42.2C3631.39 42.2 3629.09 43.7 3626.99 45.2L3625.79 43.7ZM3716.65 26.7L3707.55 73.3C3706.95 76.2 3706.85 78.1 3707.25 79.3C3707.85 81.1 3710.05 81.5 3714.05 82L3713.65 84C3708.85 83.7 3707.45 83.6 3702.95 83.6C3698.35 83.6 3696.85 83.7 3691.95 84L3692.35 82C3696.55 81.5 3698.75 80.9 3700.25 79.1C3701.25 77.9 3701.65 76 3702.15 73.2L3711.25 26.8C3711.75 24 3711.95 22.1 3711.55 20.9C3710.95 18.9 3708.75 18.5 3704.75 18L3705.15 16C3709.95 16.3 3711.35 16.4 3715.95 16.4C3720.45 16.4 3721.95 16.3 3726.85 16L3726.45 18C3722.25 18.5 3719.95 18.9 3718.65 20.7C3717.65 22 3717.15 23.8 3716.65 26.7ZM3784.52 79.2C3780.82 82.4 3777.02 85 3773.62 85C3769.62 85 3770.42 80.3 3771.52 75.4C3772.12 72.8 3772.62 70.2 3773.12 67.6C3767.82 77 3760.52 85 3753.32 85C3746.32 85 3743.32 79 3743.32 71.1C3743.32 55.4 3754.92 38 3770.22 38C3772.92 38 3775.92 38.6 3778.72 39.7L3782.62 19.3C3783.32 15.7 3782.12 15.9 3775.42 15.6L3775.52 13.6L3788.02 12L3788.82 12.8L3776.02 77.7C3775.72 79.4 3775.82 80.6 3777.32 80.6C3778.82 80.6 3780.92 79.3 3783.22 77.6L3784.52 79.2ZM3748.62 69.9C3748.62 73.8 3749.82 81.1 3755.02 81.1C3762.32 81.1 3772.22 65.7 3774.72 60.2L3777.92 43.6C3775.32 41.7 3772.22 40.7 3769.62 40.7C3758.22 40.7 3748.62 55.5 3748.62 69.9ZM3809.11 85C3800.41 85 3794.81 78.9 3794.81 68.3C3794.81 52.8 3804.71 38 3818.71 38C3827.51 38 3833.11 44.1 3833.11 54.7C3833.11 69.8 3823.11 85 3809.11 85ZM3810.81 82.3C3821.81 82.3 3827.71 67.2 3827.71 55.5C3827.71 45.7 3823.41 40.7 3817.11 40.7C3806.01 40.7 3800.21 55.8 3800.21 67.5C3800.21 77.3 3804.41 82.3 3810.81 82.3ZM3845.33 35.5L3845.73 21.7C3850.93 19.4 3856.33 18 3862.63 18C3873.33 18 3879.13 22.3 3879.13 29.3C3879.13 45.2 3857.73 45.9 3850.53 67.8H3847.63L3847.83 67.1C3853.93 45.7 3873.63 43.4 3873.63 30.3C3873.63 25.1 3869.73 20.5 3861.53 20.5C3859.03 20.5 3855.63 20.9 3851.73 22.7L3846.93 35.5H3845.33ZM3845.63 85C3843.13 85 3841.43 83.5 3841.43 81.1C3841.43 78 3844.33 75.5 3847.53 75.5C3849.93 75.5 3851.53 77 3851.53 79.1C3851.53 82.6 3848.63 85 3845.63 85Z" fill="#1D1D1D"/>
<path d="M3238.33 77.5655H3230.23C3225.88 75.7655 3210.13 31.3655 3254.08 33.4655C3235.48 28.8155 3212.23 39.0155 3203.98 47.5655L3191.68 13.9655C3204.13 4.51549 3220.03 0.465495 3241.33 0.315488C3268.78 0.16549 3285.58 13.2155 3280.33 34.2155C3271.48 69.4655 3229.78 42.7655 3238.33 77.5655ZM3218.68 94.9655C3218.68 87.7655 3225.13 81.9155 3233.08 81.9155C3241.03 81.9155 3247.63 87.7655 3247.63 94.9655C3247.63 102.165 3241.03 108.015 3233.08 108.015C3225.13 108.015 3218.68 102.165 3218.68 94.9655Z" fill="black"/>
<path d="M2921.33 108.015C2923.13 72.9153 2923.13 37.9653 2921.33 3.16528H2961.23C2959.28 38.2653 2959.28 73.2153 2961.23 108.015H2921.33Z" fill="black"/>
<path d="M2870.62 15.6153C2878.42 26.1153 2882.92 40.3653 2882.92 55.2153C2882.92 70.0653 2878.42 84.3153 2870.62 94.8153C2862.82 105.315 2851.12 111.165 2835.82 111.165C2822.02 111.315 2808.37 105.315 2800.57 94.8153C2792.77 84.3153 2788.42 70.0653 2788.42 55.2153C2788.42 40.3653 2792.77 26.1153 2800.57 15.6153C2804.77 9.91526 2815.12 0.31526 2835.52 0.0152636C2854.87 -0.43474 2865.82 9.16526 2870.62 15.6153Z" fill="black"/>
<path d="M2731.43 3.0154C2742.68 2.8654 2783.63 -0.284603 2785.28 54.3154V56.4154C2785.43 86.8654 2768.03 108.015 2753.33 108.165C2753.18 108.165 2752.58 108.015 2752.43 108.015C2726.33 107.865 2720.48 75.0154 2718.38 69.6154C2720.93 81.0154 2723.63 92.5654 2730.68 108.015H2696.33C2696.33 105.315 2696.48 103.815 2696.63 100.965C2698.13 68.2654 2697.98 35.5654 2696.33 3.0154H2731.43Z" fill="black"/>
<path d="M2599.94 42.0153C2592.74 42.1653 2585.54 42.6153 2578.49 43.0653V3.16528H2658.89V43.0653C2651.54 42.6153 2644.34 42.1653 2637.14 42.0153C2636.84 64.0653 2637.29 86.1153 2638.64 108.015H2598.59C2599.79 85.9653 2600.24 63.9153 2599.94 42.0153Z" fill="black"/>
<path d="M2566.32 3.16528C2571.87 38.2653 2579.22 73.2153 2588.52 108.165H2548.62C2548.02 101.265 2547.27 94.6653 2546.52 88.3653C2542.02 88.3653 2537.37 88.3653 2532.87 88.3653C2532.12 94.6653 2531.37 101.265 2530.77 108.015H2490.87C2500.02 73.2153 2507.52 38.2653 2513.07 3.16528H2566.32Z" fill="black"/>
<path d="M2435.17 61.3653C2435.32 76.9653 2435.77 92.5653 2436.67 108.015H2396.77C2398.57 72.9153 2398.57 37.9653 2396.77 3.16528H2436.67C2435.77 18.6153 2435.32 34.2153 2435.17 49.6653C2439.82 49.6653 2444.32 49.6653 2448.97 49.6653C2448.82 34.0653 2448.37 18.6153 2447.47 3.16528H2487.52C2485.42 38.2653 2485.42 73.2153 2487.52 108.015H2447.47C2448.37 92.5653 2448.82 76.9653 2448.97 61.5153C2444.32 61.3653 2439.82 61.3653 2435.17 61.3653Z" fill="black"/>
<path d="M2314.55 60.4653C2318.75 41.5653 2322.05 22.5153 2324 3.16528H2338.1C2340.05 22.5153 2343.35 41.5653 2347.7 60.4653C2349.8 41.4153 2351.3 22.3653 2352.2 3.16528H2392.25C2386.7 37.9653 2382.95 72.9153 2381.15 108.015H2341.1C2338.7 84.9153 2336.6 71.1153 2331.05 50.1153C2325.5 71.1153 2323.4 84.9153 2321 108.015H2281.1C2279.3 72.9153 2275.55 37.9653 2270 3.16528H2309.9C2310.8 22.3653 2312.3 41.4153 2314.55 60.4653Z" fill="black"/>
<path d="M2836.39 36.2196C2838.33 36.0566 2840.35 40.5154 2841.39 46.7564C2845.43 42.9689 2849.1 40.9995 2850.46 42.1524C2851.95 43.411 2850.23 47.9939 2846.56 53.1423C2852.09 53.319 2856.08 54.52 2856.22 56.3005C2856.39 58.244 2851.93 60.2678 2845.69 61.3088C2849.48 65.3463 2851.45 69.0146 2850.29 70.3797C2849.03 71.8693 2844.45 70.1478 2839.3 66.4709C2839.12 72.004 2837.92 75.9903 2836.14 76.1401C2834.2 76.303 2832.18 71.8462 2831.13 65.6071C2827.1 69.3932 2823.43 71.3622 2822.07 70.2092C2820.58 68.9503 2822.3 64.365 2825.98 59.2154C2820.44 59.0392 2816.45 57.839 2816.3 56.0582C2816.14 54.1147 2820.6 52.089 2826.84 51.0479C2823.05 47.0116 2821.08 43.3448 2822.24 41.98C2823.49 40.4904 2828.08 42.2111 2833.23 45.8868C2833.4 40.3548 2834.6 36.3693 2836.39 36.2196Z" fill="#F7F4EB"/>
<path d="M2738.37 27.2696C2741.32 26.5764 2746.51 34.0208 2749.97 43.8962C2753.43 53.7713 2753.84 62.3383 2750.89 63.0317C2747.95 63.7248 2742.75 56.2814 2739.29 46.406C2735.84 36.5309 2735.42 27.9631 2738.37 27.2696Z" fill="#F7F4EB"/>
<path d="M3176.39 15.6306C3184.19 26.1306 3188.69 40.3806 3188.69 55.2306C3188.69 70.0806 3184.19 84.3306 3176.39 94.8306C3168.59 105.331 3156.89 111.181 3141.59 111.181C3127.79 111.331 3114.14 105.331 3106.34 94.8306C3098.54 84.3306 3094.19 70.0806 3094.19 55.2306C3094.19 40.3806 3098.54 26.1306 3106.34 15.6306C3110.54 9.93064 3120.89 0.330641 3141.29 0.0306445C3160.64 -0.419359 3171.59 9.18064 3176.39 15.6306Z" fill="black"/>
<path d="M3037.2 3.03078C3048.45 2.88078 3089.4 -0.269222 3091.05 54.3308V56.4308C3091.2 86.8808 3073.8 108.031 3059.1 108.181C3058.95 108.181 3058.35 108.031 3058.2 108.031C3032.1 107.881 3026.25 75.0308 3024.15 69.6308C3026.7 81.0308 3029.4 92.5808 3036.45 108.031H3002.1C3002.1 105.331 3002.25 103.831 3002.4 100.981C3003.9 68.2808 3003.75 35.5808 3002.1 3.03078H3037.2Z" fill="black"/>
<path d="M3048.37 27.27C3051.32 26.5774 3056.51 34.0206 3059.97 43.8955C3063.42 53.7709 3063.84 62.3388 3060.89 63.032C3057.94 63.7246 3052.75 56.2813 3049.29 46.4064C3045.84 36.531 3045.42 27.9632 3048.37 27.27Z" fill="#F7F4EB"/>
<path d="M3142.16 36.2345C3144.1 36.071 3146.12 40.5307 3147.17 46.7724C3151.2 42.9849 3154.87 41.0144 3156.24 42.1674C3157.73 43.4259 3156 48.0091 3152.33 53.1572C3157.86 53.334 3161.85 54.535 3162 56.3154C3162.16 58.2591 3157.7 60.2837 3151.46 61.3247C3155.25 65.3619 3157.22 69.0292 3156.07 70.3946C3154.81 71.8845 3150.22 70.1637 3145.07 66.4868C3144.9 72.0197 3143.7 76.0062 3141.92 76.156C3139.97 76.3194 3137.95 71.8618 3136.9 65.622C3132.87 69.4081 3129.2 71.3781 3127.84 70.2251C3126.35 68.966 3128.07 64.38 3131.75 59.2304C3126.21 59.0542 3122.22 57.8541 3122.07 56.0731C3121.91 54.1298 3126.37 52.1048 3132.61 51.0638C3128.82 47.0275 3126.85 43.3607 3128.01 41.9959C3129.27 40.5062 3133.85 42.2267 3139 45.9027C3139.17 40.3706 3140.38 36.3846 3142.16 36.2345Z" fill="#F7F4EB"/>
<path d="M2539.28 71.6597C2537.54 71.4923 2536.32 70.297 2535.48 68.3302C2532.82 65.7555 2529.7 60.8275 2527.2 54.9039C2523.27 45.6155 2522.35 37.3995 2525.15 36.5539C2527.25 35.9165 2530.87 39.6575 2534.21 45.5231C2535.05 39.5582 2536.82 35.5764 2538.9 35.7904C2540.78 35.9861 2542.44 39.5919 2543.38 44.8501C2546.38 38.3245 2549.87 34.2478 2551.98 35.2374C2554.62 36.4798 2554.08 45.2104 2550.78 54.7379C2548.55 61.1891 2545.62 66.3505 2543.14 68.6276C2542.43 70.5326 2541.24 71.6147 2539.28 71.6597Z" fill="#F7F4EB"/>
<path d="M1742.35 43C1744.05 43 1744.95 44 1744.95 45.9C1744.95 48.8 1742.85 53.9 1738.25 60.6L1719.05 89H1717.05L1714.05 53.8L1690.85 89H1689.15L1686.75 51.3C1686.65 49.6 1686.45 47.2 1684.75 47.2C1683.35 47.2 1680.95 48.1 1678.35 50.2L1677.15 48.6C1680.35 45.9 1684.35 43 1687.95 43C1691.65 43 1691.65 46.8 1691.95 53.1L1693.25 81.1L1716.45 44H1718.25L1721.15 81.8C1733.75 61.1 1739.25 52.9 1739.25 46.1C1739.25 45.4 1739.15 44.6 1739.05 43.9C1740.15 43.3 1741.45 43 1742.35 43ZM1747.05 88.2L1759.45 24C1760.15 20.6 1758.65 20.9 1752.35 20.6L1752.45 18.6L1764.95 17L1765.75 17.8L1755.95 67.5C1762.95 55 1774.55 43.1 1782.85 43.1C1787.85 43.1 1788.65 47.4 1787.45 52.8L1780.95 83.1C1780.45 85.4 1781.55 85.8 1782.35 85.8C1783.75 85.8 1785.95 84.6 1788.15 82.9L1789.45 84.4C1785.35 88 1781.75 90 1779.05 90C1775.65 90 1775.35 86.6 1776.25 82.2L1782.05 55C1782.95 50.8 1783.25 47.2 1780.05 47.2C1775.45 47.2 1765.85 55 1754.75 73.7L1751.85 88.5L1747.95 89.3L1747.05 88.2ZM1838.67 84.2C1835.17 87.4 1831.37 90 1828.27 90C1824.17 90 1824.77 85.3 1825.77 80.4C1826.27 78.1 1826.77 75.8 1827.17 73.5C1822.27 82.5 1816.07 90 1808.67 90C1802.27 90 1799.07 84.2 1799.07 76.4C1799.07 60.7 1810.97 43 1825.37 43C1828.27 43 1831.37 43.6 1834.37 44.9L1838.47 43.4L1830.47 81.7C1829.97 84.4 1830.37 85.6 1831.87 85.6C1833.27 85.6 1835.27 84.4 1837.47 82.6L1838.67 84.2ZM1804.37 74.2C1804.37 79.3 1805.77 86.1 1810.47 86.1C1817.37 86.1 1826.47 70.8 1828.97 65.3L1832.57 48.1C1829.97 46.4 1827.07 45.7 1824.87 45.7C1814.27 45.7 1804.37 61 1804.37 74.2ZM1867.69 83.6C1863.19 86.9 1857.69 90 1854.59 90C1850.89 90 1850.39 87.4 1851.79 79.7L1857.59 47.9H1850.39L1850.79 45.7C1857.79 44.5 1860.89 39.9 1863.49 32.8H1865.79L1863.09 45L1875.89 44.4L1875.29 47.9H1862.49L1856.69 79.7C1855.89 84.2 1856.09 85.6 1857.59 85.6C1859.69 85.6 1863.29 83.9 1866.59 81.8L1867.69 83.6ZM1926.48 80.3C1921.98 85.7 1915.98 90 1908.88 90C1900.58 90 1895.38 84.3 1895.38 73.4C1895.38 58.5 1906.38 43 1920.18 43C1924.28 43 1927.88 44.3 1930.68 46.3L1926.18 58.8H1924.58L1924.78 47.3C1922.58 46 1920.28 45.7 1918.38 45.7C1908.58 45.7 1900.68 61 1900.68 72.6C1900.68 81.7 1904.38 85.9 1910.98 85.9C1917.28 85.9 1922.08 82.3 1925.18 78.8L1926.48 80.3ZM1976.17 84.2C1972.67 87.4 1968.87 90 1965.77 90C1961.67 90 1962.27 85.3 1963.27 80.4C1963.77 78.1 1964.27 75.8 1964.67 73.5C1959.77 82.5 1953.57 90 1946.17 90C1939.77 90 1936.57 84.2 1936.57 76.4C1936.57 60.7 1948.47 43 1962.87 43C1965.77 43 1968.87 43.6 1971.87 44.9L1975.97 43.4L1967.97 81.7C1967.47 84.4 1967.87 85.6 1969.37 85.6C1970.77 85.6 1972.77 84.4 1974.97 82.6L1976.17 84.2ZM1941.87 74.2C1941.87 79.3 1943.27 86.1 1947.97 86.1C1954.87 86.1 1963.97 70.8 1966.47 65.3L1970.07 48.1C1967.47 46.4 1964.57 45.7 1962.37 45.7C1951.77 45.7 1941.87 61 1941.87 74.2ZM1987.79 48.7C1990.99 45.8 1994.99 43 1998.09 43C2001.29 43 2001.99 46.1 2000.89 51L1997.39 67.5C2004.39 54.9 2015.99 43.1 2024.19 43.1C2029.19 43.1 2029.89 47.4 2028.79 52.8L2022.39 83.1C2021.89 85.4 2022.99 85.8 2023.79 85.8C2025.19 85.8 2027.29 84.6 2029.59 82.9L2030.79 84.4C2026.69 88 2023.09 90 2020.39 90C2016.99 90 2016.69 86.6 2017.59 82.2L2023.39 55C2024.29 50.8 2024.59 47.2 2021.39 47.2C2016.79 47.2 2007.19 55 1996.09 73.7L1992.89 88.5L1988.99 89.3L1988.09 88.3L1996.19 49.9C1996.59 47.8 1996.09 47.2 1994.99 47.2C1993.39 47.2 1991.09 48.7 1988.99 50.2L1987.79 48.7ZM2078.65 31.7L2069.55 78.3C2068.95 81.2 2068.85 83.1 2069.25 84.3C2069.85 86.1 2072.05 86.5 2076.05 87L2075.65 89C2070.85 88.7 2069.45 88.6 2064.95 88.6C2060.35 88.6 2058.85 88.7 2053.95 89L2054.35 87C2058.55 86.5 2060.75 85.9 2062.25 84.1C2063.25 82.9 2063.65 81 2064.15 78.2L2073.25 31.8C2073.75 29 2073.95 27.1 2073.55 25.9C2072.95 23.9 2070.75 23.5 2066.75 23L2067.15 21C2071.95 21.3 2073.35 21.4 2077.95 21.4C2082.45 21.4 2083.95 21.3 2088.85 21L2088.45 23C2084.25 23.5 2081.95 23.9 2080.65 25.7C2079.65 27 2079.15 28.8 2078.65 31.7ZM2146.52 84.2C2142.82 87.4 2139.02 90 2135.62 90C2131.62 90 2132.42 85.3 2133.52 80.4C2134.12 77.8 2134.62 75.2 2135.12 72.6C2129.82 82 2122.52 90 2115.32 90C2108.32 90 2105.32 84 2105.32 76.1C2105.32 60.4 2116.92 43 2132.22 43C2134.92 43 2137.92 43.6 2140.72 44.7L2144.62 24.3C2145.32 20.7 2144.12 20.9 2137.42 20.6L2137.52 18.6L2150.02 17L2150.82 17.8L2138.02 82.7C2137.72 84.4 2137.82 85.6 2139.32 85.6C2140.82 85.6 2142.92 84.3 2145.22 82.6L2146.52 84.2ZM2110.62 74.9C2110.62 78.8 2111.82 86.1 2117.02 86.1C2124.32 86.1 2134.22 70.7 2136.72 65.2L2139.92 48.6C2137.32 46.7 2134.22 45.7 2131.62 45.7C2120.22 45.7 2110.62 60.5 2110.62 74.9ZM2171.11 90C2162.41 90 2156.81 83.9 2156.81 73.3C2156.81 57.8 2166.71 43 2180.71 43C2189.51 43 2195.11 49.1 2195.11 59.7C2195.11 74.8 2185.11 90 2171.11 90ZM2172.81 87.3C2183.81 87.3 2189.71 72.2 2189.71 60.5C2189.71 50.7 2185.41 45.7 2179.11 45.7C2168.01 45.7 2162.21 60.8 2162.21 72.5C2162.21 82.3 2166.41 87.3 2172.81 87.3ZM2207.33 40.5L2207.73 26.7C2212.93 24.4 2218.33 23 2224.63 23C2235.33 23 2241.13 27.3 2241.13 34.3C2241.13 50.2 2219.73 50.9 2212.53 72.8H2209.63L2209.83 72.1C2215.93 50.7 2235.63 48.4 2235.63 35.3C2235.63 30.1 2231.73 25.5 2223.53 25.5C2221.03 25.5 2217.63 25.9 2213.73 27.7L2208.93 40.5H2207.33ZM2207.63 90C2205.13 90 2203.43 88.5 2203.43 86.1C2203.43 83 2206.33 80.5 2209.53 80.5C2211.93 80.5 2213.53 82 2213.53 84.1C2213.53 87.6 2210.63 90 2207.63 90Z" fill="#1D1D1D"/>
<path d="M99.3477 46C101.048 46 101.948 47 101.948 48.9C101.948 51.8 99.8477 56.9 95.2477 63.6L76.0477 92H74.0477L71.0477 56.8L47.8477 92H46.1477L43.7477 54.3C43.6477 52.6 43.4477 50.2 41.7477 50.2C40.3477 50.2 37.9477 51.1 35.3477 53.2L34.1477 51.6C37.3477 48.9 41.3477 46 44.9477 46C48.6477 46 48.6477 49.8 48.9477 56.1L50.2477 84.1L73.4477 47H75.2477L78.1477 84.8C90.7477 64.1 96.2477 55.9 96.2477 49.1C96.2477 48.4 96.1477 47.6 96.0477 46.9C97.1477 46.3 98.4477 46 99.3477 46ZM104.049 91.2L116.449 27C117.149 23.6 115.649 23.9 109.349 23.6L109.449 21.6L121.949 20L122.749 20.8L112.949 70.5C119.949 58 131.549 46.1 139.849 46.1C144.849 46.1 145.649 50.4 144.449 55.8L137.949 86.1C137.449 88.4 138.549 88.8 139.349 88.8C140.749 88.8 142.949 87.6 145.149 85.9L146.449 87.4C142.349 91 138.749 93 136.049 93C132.649 93 132.349 89.6 133.249 85.2L139.049 58C139.949 53.8 140.249 50.2 137.049 50.2C132.449 50.2 122.849 58 111.749 76.7L108.849 91.5L104.949 92.3L104.049 91.2ZM195.672 87.2C192.172 90.4 188.372 93 185.272 93C181.172 93 181.772 88.3 182.772 83.4C183.272 81.1 183.772 78.8 184.172 76.5C179.272 85.5 173.072 93 165.672 93C159.272 93 156.072 87.2 156.072 79.4C156.072 63.7 167.972 46 182.372 46C185.272 46 188.372 46.6 191.372 47.9L195.472 46.4L187.472 84.7C186.972 87.4 187.372 88.6 188.872 88.6C190.272 88.6 192.272 87.4 194.472 85.6L195.672 87.2ZM161.372 77.2C161.372 82.3 162.772 89.1 167.472 89.1C174.372 89.1 183.472 73.8 185.972 68.3L189.572 51.1C186.972 49.4 184.072 48.7 181.872 48.7C171.272 48.7 161.372 64 161.372 77.2ZM224.693 86.6C220.193 89.9 214.693 93 211.593 93C207.893 93 207.393 90.4 208.793 82.7L214.593 50.9H207.393L207.793 48.7C214.793 47.5 217.893 42.9 220.493 35.8H222.793L220.093 48L232.893 47.4L232.293 50.9H219.493L213.693 82.7C212.893 87.2 213.093 88.6 214.593 88.6C216.693 88.6 220.293 86.9 223.593 84.8L224.693 86.6ZM283.477 83.3C278.977 88.7 272.977 93 265.877 93C257.577 93 252.377 87.3 252.377 76.4C252.377 61.5 263.377 46 277.177 46C281.277 46 284.877 47.3 287.677 49.3L283.177 61.8H281.577L281.777 50.3C279.577 49 277.277 48.7 275.377 48.7C265.577 48.7 257.677 64 257.677 75.6C257.677 84.7 261.377 88.9 267.977 88.9C274.277 88.9 279.077 85.3 282.177 81.8L283.477 83.3ZM333.172 87.2C329.672 90.4 325.872 93 322.772 93C318.672 93 319.272 88.3 320.272 83.4C320.772 81.1 321.272 78.8 321.672 76.5C316.772 85.5 310.572 93 303.172 93C296.772 93 293.572 87.2 293.572 79.4C293.572 63.7 305.472 46 319.872 46C322.772 46 325.872 46.6 328.872 47.9L332.972 46.4L324.972 84.7C324.472 87.4 324.872 88.6 326.372 88.6C327.772 88.6 329.772 87.4 331.972 85.6L333.172 87.2ZM298.872 77.2C298.872 82.3 300.272 89.1 304.972 89.1C311.872 89.1 320.972 73.8 323.472 68.3L327.072 51.1C324.472 49.4 321.572 48.7 319.372 48.7C308.772 48.7 298.872 64 298.872 77.2ZM344.793 51.7C347.993 48.8 351.993 46 355.093 46C358.293 46 358.993 49.1 357.893 54L354.393 70.5C361.393 57.9 372.993 46.1 381.193 46.1C386.193 46.1 386.893 50.4 385.793 55.8L379.393 86.1C378.893 88.4 379.993 88.8 380.793 88.8C382.193 88.8 384.293 87.6 386.593 85.9L387.793 87.4C383.693 91 380.093 93 377.393 93C373.993 93 373.693 89.6 374.593 85.2L380.393 58C381.293 53.8 381.593 50.2 378.393 50.2C373.793 50.2 364.193 58 353.093 76.7L349.893 91.5L345.993 92.3L345.093 91.3L353.193 52.9C353.593 50.8 353.093 50.2 351.993 50.2C350.393 50.2 348.093 51.7 345.993 53.2L344.793 51.7ZM435.649 34.7L426.549 81.3C425.949 84.2 425.849 86.1 426.249 87.3C426.849 89.1 429.049 89.5 433.049 90L432.649 92C427.849 91.7 426.449 91.6 421.949 91.6C417.349 91.6 415.849 91.7 410.949 92L411.349 90C415.549 89.5 417.749 88.9 419.249 87.1C420.249 85.9 420.649 84 421.149 81.2L430.249 34.8C430.749 32 430.949 30.1 430.549 28.9C429.949 26.9 427.749 26.5 423.749 26L424.149 24C428.949 24.3 430.349 24.4 434.949 24.4C439.449 24.4 440.949 24.3 445.849 24L445.449 26C441.249 26.5 438.949 26.9 437.649 28.7C436.649 30 436.149 31.8 435.649 34.7ZM503.522 87.2C499.822 90.4 496.022 93 492.622 93C488.622 93 489.422 88.3 490.522 83.4C491.122 80.8 491.622 78.2 492.122 75.6C486.822 85 479.522 93 472.322 93C465.322 93 462.322 87 462.322 79.1C462.322 63.4 473.922 46 489.222 46C491.922 46 494.922 46.6 497.722 47.7L501.622 27.3C502.322 23.7 501.122 23.9 494.422 23.6L494.522 21.6L507.022 20L507.822 20.8L495.022 85.7C494.722 87.4 494.822 88.6 496.322 88.6C497.822 88.6 499.922 87.3 502.222 85.6L503.522 87.2ZM467.622 77.9C467.622 81.8 468.822 89.1 474.022 89.1C481.322 89.1 491.222 73.7 493.722 68.2L496.922 51.6C494.322 49.7 491.222 48.7 488.622 48.7C477.222 48.7 467.622 63.5 467.622 77.9ZM528.108 93C519.408 93 513.808 86.9 513.808 76.3C513.808 60.8 523.708 46 537.708 46C546.508 46 552.108 52.1 552.108 62.7C552.108 77.8 542.108 93 528.108 93ZM529.808 90.3C540.808 90.3 546.708 75.2 546.708 63.5C546.708 53.7 542.408 48.7 536.108 48.7C525.008 48.7 519.208 63.8 519.208 75.5C519.208 85.3 523.408 90.3 529.808 90.3ZM564.334 43.5L564.734 29.7C569.934 27.4 575.334 26 581.634 26C592.334 26 598.134 30.3 598.134 37.3C598.134 53.2 576.734 53.9 569.534 75.8H566.634L566.834 75.1C572.934 53.7 592.634 51.4 592.634 38.3C592.634 33.1 588.734 28.5 580.534 28.5C578.034 28.5 574.634 28.9 570.734 30.7L565.934 43.5H564.334ZM564.634 93C562.134 93 560.434 91.5 560.434 89.1C560.434 86 563.334 83.5 566.534 83.5C568.934 83.5 570.534 85 570.534 87.1C570.534 90.6 567.634 93 564.634 93Z" fill="#1D1D1D"/>
<path d="M1600.33 82.5655H1592.23C1587.88 80.7655 1572.13 36.3655 1616.08 38.4655C1597.48 33.8155 1574.23 44.0155 1565.98 52.5655L1553.68 18.9655C1566.13 9.51549 1582.03 5.4655 1603.33 5.31549C1630.78 5.16549 1647.58 18.2155 1642.33 39.2155C1633.48 74.4655 1591.78 47.7655 1600.33 82.5655ZM1580.68 99.9655C1580.68 92.7655 1587.13 86.9155 1595.08 86.9155C1603.03 86.9155 1609.63 92.7655 1609.63 99.9655C1609.63 107.165 1603.03 113.015 1595.08 113.015C1587.13 113.015 1580.68 107.165 1580.68 99.9655Z" fill="black"/>
<path d="M1283.33 113.015C1285.13 77.9153 1285.13 42.9653 1283.33 8.16528H1323.23C1321.28 43.2653 1321.28 78.2153 1323.23 113.015H1283.33Z" fill="black"/>
<path d="M1232.62 20.6153C1240.42 31.1153 1244.92 45.3653 1244.92 60.2153C1244.92 75.0653 1240.42 89.3153 1232.62 99.8153C1224.82 110.315 1213.12 116.165 1197.82 116.165C1184.02 116.315 1170.37 110.315 1162.57 99.8153C1154.77 89.3153 1150.42 75.0653 1150.42 60.2153C1150.42 45.3653 1154.77 31.1153 1162.57 20.6153C1166.77 14.9153 1177.12 5.31526 1197.52 5.01526C1216.87 4.56526 1227.82 14.1653 1232.62 20.6153Z" fill="black"/>
<path d="M1093.43 8.0154C1104.68 7.8654 1145.63 4.7154 1147.28 59.3154V61.4154C1147.43 91.8654 1130.03 113.015 1115.33 113.165C1115.18 113.165 1114.58 113.015 1114.43 113.015C1088.33 112.865 1082.48 80.0154 1080.38 74.6154C1082.93 86.0154 1085.63 97.5654 1092.68 113.015H1058.33C1058.33 110.315 1058.48 108.815 1058.63 105.965C1060.13 73.2654 1059.98 40.5654 1058.33 8.0154H1093.43Z" fill="black"/>
<path d="M961.939 47.0153C954.739 47.1653 947.539 47.6153 940.489 48.0653V8.16528H1020.89V48.0653C1013.54 47.6153 1006.34 47.1653 999.139 47.0153C998.839 69.0653 999.289 91.1153 1000.64 113.015H960.589C961.789 90.9653 962.239 68.9153 961.939 47.0153Z" fill="black"/>
<path d="M928.32 8.16528C933.87 43.2653 941.22 78.2153 950.52 113.165H910.62C910.02 106.265 909.27 99.6653 908.52 93.3653C904.02 93.3653 899.37 93.3653 894.87 93.3653C894.12 99.6653 893.37 106.265 892.77 113.015H852.87C862.02 78.2153 869.52 43.2653 875.07 8.16528H928.32Z" fill="black"/>
<path d="M797.169 66.3653C797.319 81.9653 797.769 97.5653 798.669 113.015H758.769C760.569 77.9153 760.569 42.9653 758.769 8.16528H798.669C797.769 23.6153 797.319 39.2153 797.169 54.6653C801.819 54.6653 806.319 54.6653 810.969 54.6653C810.819 39.0653 810.369 23.6153 809.469 8.16528H849.519C847.419 43.2653 847.419 78.2153 849.519 113.015H809.469C810.369 97.5653 810.819 81.9653 810.969 66.5153C806.319 66.3653 801.819 66.3653 797.169 66.3653Z" fill="black"/>
<path d="M676.55 65.4653C680.75 46.5653 684.05 27.5153 686 8.16528H700.1C702.05 27.5153 705.35 46.5653 709.7 65.4653C711.8 46.4153 713.3 27.3653 714.2 8.16528H754.25C748.7 42.9653 744.95 77.9153 743.15 113.015H703.1C700.7 89.9153 698.6 76.1153 693.05 55.1153C687.5 76.1153 685.4 89.9153 683 113.015H643.1C641.3 77.9153 637.55 42.9653 632 8.16528H671.9C672.8 27.3653 674.3 46.4153 676.55 65.4653Z" fill="black"/>
<path d="M1198.38 41.2191C1200.33 41.0556 1202.35 45.5153 1203.4 51.757C1207.43 47.9695 1211.1 45.999 1212.46 47.152C1213.95 48.4105 1212.23 52.9937 1208.56 58.1418C1214.09 58.3186 1218.08 59.5196 1218.23 61.3C1218.39 63.2437 1213.93 65.2683 1207.69 66.3094C1211.48 70.3465 1213.45 74.0139 1212.29 75.3792C1211.04 76.8692 1206.45 75.1483 1201.3 71.4714C1201.13 77.0043 1199.93 80.9908 1198.14 81.1406C1196.2 81.3041 1194.18 76.8465 1193.13 70.6066C1189.1 74.3928 1185.43 76.3627 1184.07 75.2097C1182.58 73.9506 1184.3 69.3647 1187.98 64.215C1182.44 64.0388 1178.45 62.8387 1178.3 61.0577C1178.14 59.1144 1182.6 57.0895 1188.84 56.0484C1185.05 52.0121 1183.08 48.3453 1184.24 46.9805C1185.5 45.4908 1190.08 47.2113 1195.23 50.8873C1195.4 45.3553 1196.6 41.3692 1198.38 41.2191Z" fill="#F7F4EB"/>
<path d="M1538.39 20.6306C1546.19 31.1306 1550.69 45.3806 1550.69 60.2306C1550.69 75.0806 1546.19 89.3306 1538.39 99.8306C1530.59 110.331 1518.89 116.181 1503.59 116.181C1489.79 116.331 1476.14 110.331 1468.34 99.8306C1460.54 89.3306 1456.19 75.0806 1456.19 60.2306C1456.19 45.3806 1460.54 31.1306 1468.34 20.6306C1472.54 14.9306 1482.89 5.33064 1503.29 5.03064C1522.64 4.58064 1533.59 14.1806 1538.39 20.6306Z" fill="black"/>
<path d="M1399.2 8.03078C1410.45 7.88078 1451.4 4.73078 1453.05 59.3308V61.4308C1453.2 91.8808 1435.8 113.031 1421.1 113.181C1420.95 113.181 1420.35 113.031 1420.2 113.031C1394.1 112.881 1388.25 80.0308 1386.15 74.6308C1388.7 86.0308 1391.4 97.5808 1398.45 113.031H1364.1C1364.1 110.331 1364.25 108.831 1364.4 105.981C1365.9 73.2808 1365.75 40.5808 1364.1 8.03078H1399.2Z" fill="black"/>
<path d="M1504.16 41.235C1506.1 41.0718 1508.12 45.5308 1509.17 51.7718C1513.2 47.9842 1516.87 46.0146 1518.24 47.1678C1519.73 48.4268 1518 53.0097 1514.33 58.1577C1519.86 58.3344 1523.85 59.5354 1524 61.3159C1524.16 63.2594 1519.7 65.2832 1513.46 66.3242C1517.25 70.3617 1519.22 74.0299 1518.06 75.3951C1516.81 76.8847 1512.22 75.1633 1507.07 71.4863C1506.9 77.019 1505.7 81.0061 1503.92 81.1564C1501.97 81.3199 1499.95 76.8621 1498.91 70.6225C1494.87 74.4083 1491.2 76.378 1489.84 75.2256C1488.35 73.9667 1490.07 69.3805 1493.75 64.2308C1488.21 64.0546 1484.22 62.8545 1484.08 61.0736C1483.91 59.1301 1488.37 57.1044 1494.61 56.0633C1490.82 52.0274 1488.85 48.3615 1490.01 46.9964C1491.27 45.5066 1495.85 47.2264 1501 50.9022C1501.17 45.3702 1502.38 41.3847 1504.16 41.235Z" fill="#F7F4EB"/>
<path d="M901.276 76.6596C899.541 76.4922 898.325 75.2969 897.481 73.3301C894.823 70.7553 891.7 65.8275 889.197 59.9037C885.272 50.6151 884.354 42.3992 887.147 41.5538C889.254 40.9164 892.872 44.658 896.207 50.5239C897.046 44.5591 898.824 40.5775 900.896 40.7911C902.777 40.9864 904.437 44.5913 905.38 49.8499C908.381 43.3247 911.87 39.2483 913.977 40.2371C916.617 41.4792 916.082 50.2099 912.783 59.7376C910.55 66.1881 907.621 71.3501 905.143 73.6277C904.428 75.5328 903.244 76.6145 901.276 76.6596Z" fill="#F7F4EB"/>
<path d="M1100.37 32.27C1103.32 31.5774 1108.51 39.0206 1111.97 48.8955C1115.43 58.7709 1115.84 67.3388 1112.89 68.032C1109.95 68.7246 1104.75 61.2813 1101.29 51.4064C1097.84 41.531 1097.42 32.9632 1100.37 32.27Z" fill="#F7F4EB"/>
<path d="M1410.37 32.2696C1413.32 31.5765 1418.51 39.0208 1421.97 48.8962C1425.42 58.771 1425.84 67.3379 1422.89 68.0317C1419.95 68.7248 1414.75 61.2814 1411.29 51.406C1407.84 41.5306 1407.42 32.9628 1410.37 32.2696Z" fill="#F7F4EB"/>
</svg>
