<svg width="69" height="69" viewBox="0 0 69 69" fill="none" xmlns="http://www.w3.org/2000/svg">
<path d="M32.6422 0.739778C35.9161 0.231478 39.8778 7.54578 42.3844 17.9971C48.774 11.099 54.755 7.32518 57.205 9.11678C59.878 11.0721 57.509 19.0426 51.894 28.2029C61.287 27.8442 68.183 29.404 68.648 32.4029C69.156 35.6765 61.843 39.6374 51.393 42.1439C58.291 48.534 62.066 54.514 60.274 56.964C58.318 59.638 50.346 57.267 41.1838 51.65C41.5432 61.046 39.9844 67.943 36.9851 68.409C33.7118 68.917 29.75 61.606 27.2433 51.157C20.855 58.053 14.8775 61.826 12.4278 60.035C9.75333 58.08 12.1229 50.104 17.7411 40.9414C8.34353 41.3012 1.44483 39.7425 0.979031 36.7428C0.470831 33.4692 7.78363 29.5074 18.2334 27.0008C11.3376 20.6123 7.56413 14.6341 9.35533 12.1843C11.3105 9.51038 19.2819 11.8796 28.4423 17.4952C28.0835 8.10108 29.6434 1.20568 32.6422 0.739778Z" fill="#1D1D1D"/>
<path d="M35.1576 19.0735C35.2898 19.0723 35.4315 19.1109 35.5452 19.2004C35.6338 19.2703 35.7002 19.3673 35.7298 19.4856L35.7464 19.6116V19.6135L36.2074 45.552L39.2562 40.6067C39.467 40.2438 39.8545 40.1929 40.1322 40.3401C40.2685 40.4124 40.3837 40.5345 40.4388 40.6926C40.4951 40.8541 40.4838 41.0386 40.3929 41.22L40.3919 41.219L36.681 49.524L36.6791 49.528C36.5594 49.779 36.4414 50.029 36.2582 50.203C36.0605 50.392 35.8061 50.479 35.4525 50.472L35.4486 50.473C34.8092 50.471 34.4703 50.026 34.2298 49.563L34.2279 49.558L30.141 41.2034L30.1419 41.2024C29.969 40.8552 30.1479 40.5333 30.389 40.3879C30.5106 40.3147 30.6615 40.2756 30.8128 40.3C30.9672 40.3251 31.1066 40.4151 31.2015 40.5686L34.4974 45.551L34.5931 19.6165C34.5898 19.4447 34.6608 19.3033 34.7747 19.2083C34.8849 19.1163 35.0256 19.0747 35.1576 19.0735Z" fill="#F7F4EB" stroke="#F7F4EB" stroke-width="0.4"/>
</svg>
