<svg width="139" height="137" viewBox="0 0 139 137" fill="none" xmlns="http://www.w3.org/2000/svg">
<path d="M12.252 52.5298C12.9675 53.6335 13.509 54.9645 13.1977 56.35C12.8252 58.0086 11.3986 58.6106 9.73987 58.238C6.69567 57.5542 3.89516 54.6909 4.50006 51.998C4.76306 50.8271 5.53017 50.241 6.58387 50.4777C8.45727 50.8985 9.44057 53.4562 8.98657 56.5725C9.25537 56.6533 9.50467 56.7298 9.75837 56.7868C11.1634 57.1024 12.0862 56.7357 12.3711 55.4673C12.6122 54.3941 12.2543 53.4323 11.8525 52.6656L12.252 52.5298ZM5.01977 52.4222C4.68657 53.9052 6.55497 55.5343 8.44257 56.3478C8.78377 54.1901 8.21817 52.0542 6.44237 51.6553C5.85697 51.5238 5.20387 51.6026 5.01977 52.4222ZM7.56417 47.8245L7.14657 47.9643C6.77357 47.0932 6.38157 45.9363 6.58907 45.3947C6.75367 44.9652 7.15267 44.8182 7.84487 44.9121L10.6496 45.1944C9.34376 43.516 8.11656 41.6323 8.56746 40.4557C8.77496 39.9141 9.18426 39.9637 9.82516 40.3593C9.61336 42.1415 10.1512 43.8682 11.2485 45.2526L14.8158 45.6129C15.2251 45.6626 15.4432 45.5963 15.522 45.3909C15.6078 45.1668 15.5857 44.6656 15.3378 43.971L15.7742 43.8383C16.1011 44.6061 16.5634 45.7471 16.3201 46.3821C16.1126 46.9237 15.6202 47.0349 14.7944 46.954L12.0529 46.6746C13.4494 48.4519 14.7743 50.4161 14.3163 51.6113C14.1088 52.1529 13.6808 52.096 13.0399 51.7005C13.2429 49.8292 12.7544 48.4212 11.4354 46.6093L8.12086 46.2601C7.65556 46.1889 7.47037 46.225 7.38447 46.4491C7.28427 46.7106 7.36677 47.2777 7.56417 47.8245ZM10.9672 38.6409C10.765 37.5685 10.6889 36.3617 11.0759 35.7076C11.4832 35.0191 12.138 35.5226 12.8898 36.1765C13.2865 36.5273 13.6901 36.9055 14.111 37.2939C13.0945 35.4377 12.4404 33.4009 13.1838 32.1443C13.8762 30.9738 15.166 30.9932 16.5775 31.8282C19.2973 33.4372 21.0775 37.302 19.4482 40.0562C19.214 40.4521 18.9179 40.8347 18.546 41.1491L19.4738 41.9769C20.2084 42.6206 20.623 43.0982 21.0214 43.1712C21.4643 43.2473 21.8425 42.8437 22.5803 41.7929L22.9081 42.1031C22.0113 43.5013 21.8515 43.732 21.3831 44.5238C20.9146 45.3156 20.718 45.6873 20.3012 46.5097L19.9734 46.1996C20.261 45.5564 20.4201 45.2089 20.3216 44.8254C20.2474 44.4794 19.9815 44.1827 19.4331 43.6956L12.1763 37.2648C11.9416 37.033 11.7178 36.9006 11.5651 37.1588C11.4022 37.4342 11.3988 37.9899 11.4642 38.5863L10.9672 38.6409ZM15.3557 38.3323L17.9288 40.6213C18.4212 40.3782 18.8096 39.9573 19.0234 39.5958C20.1639 37.6679 18.3919 34.5748 16.2747 33.3223C15.5517 32.8946 14.2723 32.3468 13.7835 33.173C13.1115 34.3091 14.6808 37.3521 15.3557 38.3323ZM24.1843 30.4478C24.2866 31.6462 24.1911 32.7406 23.7715 33.2757C23.2903 33.8895 22.6798 33.4362 22.0163 32.6618L14.6332 24.1534C14.036 23.4564 13.8947 23.7015 13.0453 24.6875L12.6957 24.3879L14.1456 21.8904L14.4264 21.8564L22.878 31.66C23.1592 31.9821 23.34 31.946 23.451 31.8044C23.6361 31.5683 23.7154 31.0459 23.7159 30.4617L24.1843 30.4478ZM28.5084 28.0706C27.1961 29.3603 25.457 29.3028 23.929 27.7479C21.7421 25.5226 21.2356 21.9825 23.2469 20.0059C24.5735 18.7022 26.2983 18.7738 27.8263 20.3287C29.9711 22.5112 30.534 26.08 28.5084 28.0706ZM28.3161 27.4184C29.7996 25.9605 28.4534 23.0212 26.7992 21.338C25.5376 20.0542 24.2808 19.8311 23.4535 20.6441C21.9557 22.1161 23.3302 25.0556 24.9703 26.7246C26.232 28.0084 27.4745 28.2455 28.3161 27.4184ZM28.7433 16.9212C28.9426 15.9362 29.3288 14.766 29.9114 14.343C30.4617 13.9434 30.8862 14.4261 31.3529 15.5455L32.6666 18.5462L32.718 18.583C32.1733 15.7902 32.1005 13.0007 33.1686 12.2252C33.5894 11.9197 33.9949 12.342 34.337 12.9834C33.1137 14.7366 32.7949 16.2039 33.2466 19.5833L34.4605 22.3104L33.7041 23.1068L33.3733 23.0257L30.3276 16.1416C30.1456 15.7548 29.9941 15.7164 29.8161 15.8457C29.5572 16.0337 29.3612 16.5467 29.2049 17.0804L28.7433 16.9212ZM43.8352 14.8961C43.471 16.16 42.8211 17.4416 41.571 18.115C40.0743 18.9213 38.6844 18.2388 37.8781 16.7422C36.3984 13.9954 36.7241 10.0034 39.154 8.69445C40.2104 8.12535 41.156 8.32025 41.6682 9.27105C42.5788 10.9613 41.2924 13.3808 38.6418 15.0813C38.757 15.3373 38.8627 15.5757 38.986 15.8046C39.6689 17.0724 40.5508 17.5287 41.6953 16.9121C42.6638 16.3904 43.1553 15.4896 43.4708 14.6835L43.8352 14.8961ZM39.1744 9.36495C37.8362 10.0858 37.8313 12.5647 38.4548 14.5233C40.3076 13.3661 41.5494 11.5386 40.6862 9.93635C40.4017 9.40815 39.9139 8.96665 39.1744 9.36495ZM59.0051 11.9034L59.3972 5.15955C59.4397 4.40365 59.4054 3.80165 58.9115 3.87965C58.1213 4.00455 56.564 5.80975 55.2231 8.85645L55.024 12.5933L53.9094 12.9719L53.6515 12.7494L54.0436 5.23615C54.0539 4.78905 53.9593 4.70275 53.742 4.73715C53.4259 4.78705 53.0152 5.13545 52.6337 5.53995L52.2978 5.20835C52.9226 4.42115 53.7979 3.55385 54.5289 3.43835C55.2005 3.33225 55.4554 3.91965 55.3859 5.14555L55.2531 7.63685C56.3227 5.17975 58.0879 2.89625 59.53 2.66835C60.5177 2.51225 60.8651 3.42925 60.7915 4.75695L60.6514 6.94565C61.7314 4.42625 63.5402 2.03455 65.0218 1.80045C66.0096 1.64435 66.3538 2.54155 66.2833 3.88915L65.9929 9.48305C65.966 9.95295 66.2155 9.99455 66.3735 9.96955C66.6699 9.92275 67.0441 9.60035 67.4225 9.17605L67.7553 9.48795C67.0338 10.4321 66.2552 11.1424 65.6033 11.2454C64.8921 11.3578 64.552 10.7433 64.6111 9.57985L64.8891 4.29165C64.9316 3.53575 64.8972 2.93375 64.4231 3.00865C63.6131 3.13665 61.9695 5.03655 60.5746 8.25375L60.3775 11.7472L59.263 12.1259L59.0051 11.9034ZM70.6714 12.0519L71.5891 10.8055L71.4388 3.42265C71.4395 3.08205 71.4052 2.65915 71.0659 2.63845C70.7864 2.62145 70.3338 2.81415 69.7892 3.20175L69.5316 2.82535C70.253 2.16805 71.194 1.52425 72.0125 1.57415C72.811 1.62295 72.8584 2.48745 72.8391 3.78865L72.7471 9.23315L74.3845 7.02885C75.8899 5.01685 76.3932 3.66505 76.4468 2.78665C76.4639 2.50725 76.4374 2.28515 76.3885 2.10185C76.6989 1.94045 77.0232 1.88015 77.2428 1.89355C77.6819 1.92035 77.9256 2.19575 77.8964 2.67485C77.8598 3.27375 77.4232 4.18885 76.5703 5.35895L71.4899 12.1019C69.9621 14.1526 69.125 15.0632 67.8075 14.9828C67.3883 14.9572 67.0713 14.8978 66.7205 14.7361L67.8058 12.0572L68.1851 12.0804L68.1357 14.2013C69.1 14.16 69.6454 13.4319 70.6714 12.0519ZM107.432 8.56125C107.901 8.78555 108.477 9.01695 109.252 9.34325L109.011 9.84845C107.77 9.47665 107.636 9.52375 106.344 10.7899L97.9 18.9894L97.395 18.7478L98.336 8.71215L90.971 15.676L90.466 15.4344L91.569 4.36725C91.795 1.94795 91.793 1.85855 90.643 1.06465L90.885 0.559448C91.589 0.940648 92.294 1.32195 93.286 1.79645C94.513 2.38325 94.945 2.54555 95.684 2.85465L95.442 3.35985C94.705 3.14025 94.066 2.94565 93.808 3.48695C93.652 3.81175 93.609 4.41185 93.499 5.29045L92.692 12.7743L99.959 5.82995L100.554 6.11475L99.531 16.1339L105.333 10.3067C105.755 9.88785 106.054 9.58735 106.166 9.35275C106.434 8.79345 105.864 8.45455 105.294 8.07105L105.535 7.56575C106.276 7.96425 106.71 8.21605 107.432 8.56125ZM108.117 26.509C105.2 23.8009 105.369 19.9454 107.981 17.1313C110.567 14.3466 114.739 13.4985 117.67 16.2202C120.733 19.0644 120.269 22.9451 117.778 25.6272C115.084 28.5292 111.077 29.2579 108.117 26.509ZM108.678 25.9929C110.642 27.8164 113.518 27.1296 115.994 24.4621C118.471 21.7947 119.161 18.6415 117.138 16.7636C115.174 14.94 112.337 15.5264 109.861 18.1938C107.384 20.8613 106.655 24.1149 108.678 25.9929ZM121.468 42.3952L120.999 42.7005C120.564 41.9578 120.286 41.4943 120.003 41.0583C119.73 40.6392 119.452 40.2476 119.124 39.8167L122.339 33.1688C122.159 32.9282 121.978 32.6876 121.804 32.4193L121.248 31.5642L118.582 33.298C117.677 33.8868 117.185 34.2306 117.004 34.5392C116.822 34.9199 116.989 35.288 117.369 36.0911L116.899 36.3964C116.241 35.2739 116.127 35.0618 115.527 34.1397C114.971 33.2846 114.791 33.044 114.042 32.0037L114.512 31.6984C115.07 32.3371 115.356 32.6288 115.75 32.6111C116.144 32.5934 116.652 32.3107 117.574 31.711L123.761 27.6875C124.699 27.0769 125.158 26.7548 125.323 26.385C125.482 26.0429 125.337 25.6363 125.018 24.9614L125.487 24.6561L128.311 28.9986C130.23 31.9494 130.493 34.1881 128.548 35.4529C127.023 36.4452 125.263 36.0867 123.599 34.5921L121.657 38.9802C120.871 40.7797 120.997 41.4135 121.468 42.3952ZM126.781 27.966L121.969 31.0954C122.137 31.4634 122.332 31.8373 122.572 32.2062C124.131 34.6037 125.72 34.8826 127.162 33.9448C128.721 32.9308 128.885 31.2019 127.577 29.1899L126.781 27.966ZM132.807 43.3652L128.933 44.7081L134.872 47.8565C135.521 48.2029 135.802 48.4019 136.104 48.2971C136.444 48.1792 136.484 47.7423 136.323 47.0358L136.852 46.8524C137.071 47.6657 137.288 48.3525 137.537 49.0706C137.773 49.7509 138.021 50.4057 138.477 51.5387L137.948 51.7222C137.371 50.5463 136.884 50.0588 135.541 49.2969L131.491 47.0177L127.388 52.5253C126.008 54.5279 126.013 54.9073 126.307 56.2447L125.778 56.4281C125.462 55.3946 125.33 54.9535 125.173 54.4999C125.016 54.0464 124.84 53.5994 124.632 53.1212L129.81 46.0765L127.969 45.0422L125.022 46.0642C124.247 46.3328 123.8 46.5089 123.581 46.7329C123.313 47.0587 123.387 47.4563 123.569 48.3459L123.04 48.5294C122.671 47.2814 122.585 46.9725 122.237 45.971C121.903 45.0073 121.78 44.7115 121.297 43.5028L121.826 43.3195C122.221 44.0928 122.422 44.4887 122.828 44.5598C123.126 44.6258 123.586 44.4875 124.398 44.2058L132.146 41.5198C132.959 41.2381 133.406 41.062 133.599 40.8256C133.873 40.5187 133.786 40.0834 133.618 39.2315L134.147 39.0481C134.516 40.296 134.602 40.6049 134.936 41.5686C135.283 42.5702 135.407 42.866 135.889 44.0746L135.36 44.258C134.952 43.447 134.758 43.0698 134.352 42.9987C134.042 42.9582 133.582 43.0966 132.807 43.3652ZM126.342 84.191C125.627 83.087 125.087 81.755 125.399 80.37C125.773 78.7115 127.2 78.1107 128.858 78.4845C131.902 79.1707 134.7 82.036 134.093 84.729C133.829 85.899 133.062 86.485 132.008 86.247C130.135 85.825 129.154 83.267 129.61 80.151C129.341 80.07 129.092 79.9929 128.839 79.9357C127.434 79.619 126.511 79.985 126.225 81.253C125.983 82.326 126.34 83.288 126.741 84.055L126.342 84.191ZM133.574 84.304C133.908 82.821 132.041 81.191 130.154 80.376C129.811 82.533 130.375 84.67 132.151 85.07C132.736 85.202 133.389 85.124 133.574 84.304ZM131.024 88.903L131.442 88.763C131.814 89.635 132.204 90.792 131.996 91.334C131.831 91.763 131.432 91.91 130.739 91.815L127.935 91.529C129.239 93.209 130.464 95.094 130.011 96.27C129.803 96.812 129.394 96.761 128.753 96.365C128.967 94.583 128.432 92.856 127.336 91.47L123.77 91.105C123.36 91.055 123.142 91.121 123.063 91.326C122.977 91.55 122.998 92.051 123.245 92.746L122.809 92.879C122.483 92.11 122.022 90.969 122.266 90.334C122.474 89.793 122.967 89.682 123.793 89.764L126.534 90.047C125.139 88.268 123.817 86.302 124.277 85.107C124.485 84.566 124.913 84.623 125.553 85.02C125.348 86.891 125.834 88.299 127.151 90.113L130.465 90.466C130.93 90.538 131.116 90.502 131.202 90.278C131.302 90.017 131.221 89.45 131.024 88.903ZM127.606 98.086C127.806 99.159 127.88 100.366 127.492 101.019C127.083 101.707 126.429 101.202 125.679 100.547C125.283 100.195 124.88 99.816 124.46 99.427C125.473 101.285 126.123 103.323 125.377 104.578C124.682 105.748 123.393 105.726 121.983 104.888C119.266 103.274 117.493 99.406 119.128 96.654C119.363 96.259 119.66 95.877 120.032 95.563L119.106 94.734C118.373 94.089 117.959 93.61 117.561 93.537C117.118 93.46 116.739 93.862 115.999 94.912L115.672 94.601C116.571 93.205 116.732 92.974 117.202 92.183C117.672 91.392 117.869 91.021 118.287 90.199L118.614 90.51C118.326 91.153 118.166 91.5 118.264 91.884C118.337 92.23 118.602 92.527 119.15 93.015L126.394 99.46C126.629 99.692 126.852 99.825 127.005 99.567C127.169 99.292 127.173 98.736 127.109 98.14L127.606 98.086ZM123.217 98.386L120.648 96.092C120.156 96.335 119.766 96.755 119.552 97.116C118.408 99.041 120.174 102.138 122.288 103.395C123.011 103.824 124.289 104.374 124.779 103.549C125.454 102.414 123.89 99.368 123.217 98.386ZM114.373 106.254C114.273 105.055 114.371 103.961 114.791 103.427C115.274 102.814 115.883 103.269 116.545 104.044L123.912 112.567C124.508 113.265 124.65 113.02 125.501 112.036L125.85 112.336L124.395 114.831L124.114 114.864L115.682 105.044C115.401 104.722 115.22 104.757 115.109 104.899C114.923 105.135 114.843 105.657 114.842 106.241L114.373 106.254ZM110.046 108.624C111.36 107.336 113.099 107.396 114.625 108.954C116.808 111.182 117.31 114.723 115.295 116.697C113.967 117.998 112.242 117.924 110.716 116.367C108.575 114.181 108.017 110.612 110.046 108.624ZM110.237 109.277C108.751 110.732 110.093 113.674 111.745 115.359C113.005 116.645 114.261 116.87 115.09 116.058C116.59 114.588 115.22 111.647 113.582 109.975C112.322 108.69 111.08 108.451 110.237 109.277ZM109.791 119.775C109.59 120.76 109.202 121.929 108.618 122.351C108.067 122.749 107.644 122.266 107.179 121.146L105.871 118.142L105.82 118.106C106.359 120.899 106.427 123.689 105.357 124.462C104.936 124.767 104.531 124.344 104.19 123.702C105.417 121.951 105.738 120.484 105.293 117.104L104.084 114.375L104.842 113.58L105.173 113.662L108.206 120.551C108.387 120.939 108.538 120.977 108.716 120.848C108.976 120.661 109.173 120.148 109.33 119.615L109.791 119.775ZM94.696 121.772C95.063 120.509 95.715 119.228 96.966 118.557C98.464 117.753 99.853 118.438 100.657 119.936C102.132 122.686 101.799 126.677 99.367 127.982C98.31 128.549 97.364 128.353 96.854 127.401C95.946 125.709 97.237 123.292 99.89 121.596C99.775 121.34 99.67 121.101 99.547 120.872C98.866 119.603 97.985 119.145 96.84 119.76C95.87 120.28 95.377 121.18 95.061 121.985L94.696 121.772ZM99.348 127.311C100.687 126.593 100.696 124.114 100.076 122.154C98.221 123.308 96.977 125.134 97.837 126.737C98.121 127.266 98.608 127.708 99.348 127.311ZM79.522 124.74L79.1188 131.483C79.075 132.239 79.1084 132.841 79.6024 132.764C80.3928 132.641 81.9531 130.838 83.299 127.793L83.504 124.057L84.619 123.68L84.877 123.903L84.473 131.416C84.461 131.863 84.556 131.949 84.773 131.915C85.089 131.866 85.501 131.518 85.883 131.114L86.218 131.446C85.592 132.233 84.715 133.098 83.984 133.213C83.312 133.318 83.059 132.73 83.13 131.504L83.267 129.013C82.1933 131.468 80.4244 133.749 78.9819 133.975C77.9939 134.129 77.648 133.211 77.7239 131.884L77.8675 129.695C76.7834 132.213 74.9707 134.602 73.4887 134.833C72.5007 134.988 72.1579 134.09 72.2306 132.743L72.5302 127.149C72.5579 126.679 72.3085 126.637 72.1504 126.662C71.854 126.708 71.4792 127.03 71.1001 127.454L70.7678 127.141C71.4908 126.198 72.2707 125.489 72.9228 125.387C73.6341 125.276 73.9732 125.891 73.9122 127.055L73.6255 132.342C73.5817 133.098 73.6151 133.7 74.0894 133.626C74.8995 133.499 76.5463 131.602 77.9465 128.387L78.1493 124.894L79.2645 124.517L79.522 124.74ZM67.8557 124.573L66.936 125.817L67.0741 133.201C67.0728 133.541 67.1064 133.964 67.4457 133.985C67.7252 134.003 68.1781 133.811 68.7234 133.424L68.9803 133.801C68.2578 134.457 67.3157 135.099 66.4974 135.048C65.6989 134.998 65.6529 134.133 65.6744 132.832L65.7754 127.388L64.1344 129.59C62.6256 131.599 62.1201 132.95 62.065 133.828C62.0475 134.108 62.0736 134.33 62.1223 134.513C61.8116 134.674 61.4872 134.734 61.2676 134.72C60.8285 134.693 60.5853 134.417 60.6153 133.938C60.6529 133.339 61.091 132.425 61.9458 131.256L67.0373 124.521C68.5685 122.473 69.407 121.564 70.7244 121.646C71.1436 121.673 71.4605 121.733 71.811 121.895L70.7213 124.572L70.3421 124.548L70.3949 122.427C69.4305 122.467 68.884 123.194 67.8557 124.573ZM31.0919 128.012C30.623 127.787 30.0467 127.555 29.272 127.228L29.5142 126.723C30.7548 127.096 30.8882 127.049 32.1825 125.784L40.6356 117.595L41.1406 117.837L40.1871 127.871L47.5603 120.916L48.0652 121.158L46.9498 132.224C46.7212 134.643 46.7226 134.733 47.8718 135.528L47.6296 136.033C46.9256 135.651 46.2216 135.269 45.2297 134.793C44.0035 134.205 43.5714 134.042 42.8328 133.732L43.075 133.227C43.8122 133.447 44.4505 133.643 44.71 133.102C44.8657 132.777 44.9095 132.177 45.0203 131.299L45.8367 123.816L38.5616 130.752L37.9665 130.466L39.0007 120.448L33.1923 126.269C32.7698 126.687 32.4706 126.987 32.3581 127.222C32.09 127.781 32.6591 128.12 33.229 128.504L32.9868 129.009C32.2467 128.61 31.8132 128.358 31.0919 128.012ZM30.4296 110.059C33.3412 112.772 33.1656 116.627 30.5475 119.437C27.9567 122.217 23.7834 123.057 20.8573 120.33C17.7994 117.48 18.2713 113.6 20.7666 110.923C23.4665 108.026 27.4741 107.304 30.4296 110.059ZM29.8675 110.574C27.907 108.747 25.03 109.428 22.5483 112.091C20.0666 114.754 19.371 117.906 21.39 119.787C23.3506 121.615 26.1886 121.033 28.6703 118.371C31.1521 115.708 31.8866 112.456 29.8675 110.574ZM17.1077 94.145L17.5778 93.84C18.0116 94.584 18.2883 95.048 18.5709 95.485C18.8427 95.904 19.1203 96.297 19.4474 96.728L16.2184 103.37C16.3983 103.61 16.5781 103.851 16.752 104.12L17.3064 104.976L19.9757 103.248C20.8823 102.661 21.3751 102.318 21.5567 102.01C21.7393 101.63 21.5723 101.261 21.1948 100.457L21.6648 100.153C22.321 101.277 22.4347 101.489 23.0325 102.412C23.5869 103.269 23.7667 103.51 24.5127 104.551L24.0427 104.856C23.4854 104.216 23.2009 103.924 22.8068 103.941C22.4127 103.957 21.9041 104.239 20.9807 104.837L14.7858 108.848C13.8457 109.457 13.3865 109.778 13.2206 110.147C13.0607 110.489 13.2051 110.896 13.5233 111.571L13.0532 111.876L10.2379 107.528C8.32477 104.573 8.06637 102.334 10.0138 101.073C11.5416 100.084 13.3008 100.446 14.9616 101.944L16.9121 97.559C17.7018 95.762 17.5771 95.128 17.1077 94.145ZM11.7663 108.563L16.5845 105.444C16.4175 105.075 16.2228 104.701 15.9836 104.332C14.4292 101.931 12.8409 101.649 11.3971 102.584C9.83577 103.595 9.66837 105.323 10.9728 107.338L11.7663 108.563Z" fill="black"/>
<path d="M5.64785 93.641L9.89695 92.159L3.67865 88.905C3.03525 88.579 2.76655 88.355 2.46435 88.46C2.12445 88.579 2.07305 88.978 2.24115 89.703L1.76905 89.868C1.60175 89.206 1.37695 88.501 1.13995 87.821C0.922552 87.198 0.660052 86.505 0.208252 85.392L0.680353 85.227C1.26605 86.421 1.63275 86.865 3.07315 87.655L7.52165 90.086L11.1992 84.779C12.8226 82.327 12.755 82.012 12.445 80.637L12.8983 80.479C13.1832 81.418 13.3347 81.852 13.4598 82.211C13.5718 82.532 13.7619 83.016 13.8993 83.35L8.83465 90.814L10.7468 91.863L13.9194 90.756C14.5803 90.526 14.9892 90.362 15.1697 90.151C15.4438 89.843 15.3678 89.383 15.1725 88.519L15.6446 88.354C15.9699 89.469 16.0564 89.778 16.3857 90.722C16.715 91.666 16.8393 91.962 17.2713 93.019L16.7992 93.183C16.4216 92.404 16.1946 91.996 15.7822 91.907C15.4906 91.86 15.0874 91.98 14.4076 92.217L6.17385 95.088C5.49405 95.326 5.10405 95.483 4.90465 95.701C4.63715 96.027 4.71315 96.487 4.90185 97.332L4.42975 97.497C4.11105 96.401 4.02455 96.092 3.69525 95.148C3.36595 94.204 3.24165 93.908 2.80305 92.833L3.27515 92.668C3.65935 93.466 3.88635 93.874 4.29215 93.944C4.57145 94.016 4.98695 93.871 5.64785 93.641Z" fill="#1D1D1D"/>
</svg>
