<svg width="231" height="70" viewBox="0 0 231 70" fill="none" xmlns="http://www.w3.org/2000/svg">
<path d="M183.884 36.1C190.584 27.8 199.584 16.5 199.684 0H224.884C226.784 18.2 209.584 34 209.584 34C209.584 34 222.384 53.4 230.784 69.9H200.584C200.584 69.9 196.584 53.8 190.984 47.6C191.084 56.6 191.184 61 191.684 69.9H165.084C166.284 46.5 166.384 23.2 165.084 0H191.984C191.984 6.4 194.184 14.9 190.384 24.6C189.084 27.9 183.884 35.6 183.884 36.1Z" fill="#F7F4EB"/>
<path d="M162.556 48.5V69.9H116.256C117.456 46.5 117.456 23.2 116.256 0H142.856C141.956 16.5 141.656 32.9 142.056 49.3C148.856 49.3 155.656 49 162.556 48.5Z" fill="#F7F4EB"/>
<path d="M99.2118 0C102.912 23.4 107.812 46.7 114.012 70H87.4118C87.0118 65.4 86.5118 61 86.0118 56.8C83.0118 56.8 79.9118 56.8 76.9118 56.8C76.4118 61 75.9118 65.4 75.5118 69.9H48.9118C55.0118 46.7 60.0118 23.4 63.7118 0H99.2118Z" fill="#F7F4EB"/>
<path d="M14.3001 25.9C9.50012 26 4.70012 26.3 0.00012207 26.6V0H53.6001V26.6C48.7001 26.3 43.9001 26 39.1001 25.9C38.9001 40.6 39.2001 55.3 40.1001 69.9H13.4001C14.2001 55.2 14.5001 40.5 14.3001 25.9Z" fill="#F7F4EB"/>
<path d="M81.1489 45.209C79.8981 45.0882 79.0222 44.2261 78.4137 42.8087C76.4972 40.952 74.2438 37.3977 72.4384 33.1251C69.6083 26.4272 68.9465 20.5035 70.9601 19.8936C72.4799 19.4336 75.0889 22.1323 77.4944 26.3631C78.0985 22.0614 79.3806 19.1892 80.8749 19.3432C82.2316 19.4836 83.4291 22.0841 84.1094 25.8767C86.2733 21.1707 88.7887 18.2317 90.3079 18.9452C92.2117 19.8406 91.827 26.1349 89.448 33.0056C87.837 37.6581 85.7244 41.3814 83.9372 43.0233C83.4221 44.3962 82.5674 45.1766 81.1489 45.209Z" fill="#202020"/>
</svg>
